<svg width="356" height="88" viewBox="0 0 356 88" fill="none" xmlns="http://www.w3.org/2000/svg">
<g clip-path="url(#clip0_35215_2333)">
<path fill-rule="evenodd" clip-rule="evenodd" d="M264.583 80.8429H257.565L261.511 68.8447L264.728 68.8655L261.756 77.9225H265.556L264.583 80.8429Z" fill="white" fill-opacity="0.1"/>
<path fill-rule="evenodd" clip-rule="evenodd" d="M248.973 96.0865H245.781L255.331 66.593C255.971 64.6688 257.802 63.3557 259.96 63.3273C261.749 63.3178 262.72 63.3197 264.511 63.3273C268.387 63.3444 269.88 64.8605 270.786 67.3577C271.221 68.5569 271.26 70.2476 270.905 71.3691C269.985 74.1869 269.768 74.8397 268.837 77.6519C268.227 79.4621 266.579 80.6728 264.582 80.8341C264.582 80.8341 267.258 72.7657 268.092 70.13C268.596 68.4848 267.625 66.24 265.075 66.24C263.291 66.2191 262.176 66.2305 260.396 66.24C259.366 66.2533 258.462 66.8795 258.145 67.8321L248.973 96.0865Z" fill="white" fill-opacity="0.1"/>
<path fill-rule="evenodd" clip-rule="evenodd" d="M213.327 45.533H206.309L210.255 33.5349L213.472 33.5558L210.5 42.6127H214.3L213.327 45.533Z" fill="white" fill-opacity="0.1"/>
<path fill-rule="evenodd" clip-rule="evenodd" d="M197.717 60.7769H194.525L204.075 31.2833C204.715 29.3592 206.546 28.0461 208.704 28.0176C210.493 28.0081 211.464 28.01 213.255 28.0176C217.131 28.0347 218.624 29.5508 219.53 32.048C219.965 33.2472 220.004 34.9379 219.649 36.0594C218.73 38.8772 218.512 39.53 217.581 42.3422C216.972 44.1524 215.323 45.3631 213.327 45.5244C213.327 45.5244 216.002 37.456 216.836 34.8203C217.34 33.1751 216.369 30.9303 213.819 30.9303C212.035 30.9094 210.92 30.9208 209.141 30.9303C208.11 30.9436 207.206 31.5698 206.889 32.5224L197.717 60.7769Z" fill="white" fill-opacity="0.1"/>
<path fill-rule="evenodd" clip-rule="evenodd" d="M299.944 15.2439H306.962L303.016 27.2421L299.799 27.2212L302.771 18.1642H298.971L299.944 15.2439Z" fill="white" fill-opacity="0.1"/>
<path fill-rule="evenodd" clip-rule="evenodd" d="M315.555 1.13206e-06H318.746L309.196 29.4936C308.556 31.4177 306.726 32.7308 304.567 32.7593C302.778 32.7687 301.807 32.7669 300.016 32.7593C296.14 32.7422 294.647 31.226 293.741 28.7289C293.306 27.5296 293.267 25.8389 293.622 24.7175C294.542 21.8996 294.759 21.2468 295.69 18.4347C296.3 16.6244 297.948 15.4138 299.945 15.2525C299.945 15.2525 297.269 23.3209 296.435 25.9566C295.931 27.6018 296.902 29.8466 299.452 29.8466C301.236 29.8674 302.351 29.856 304.131 29.8466C305.161 29.8333 306.065 29.2071 306.382 28.2545L315.555 1.13206e-06Z" fill="white" fill-opacity="0.1"/>
<path fill-rule="evenodd" clip-rule="evenodd" d="M292.976 99.7207H285.958L289.904 87.7225L293.121 87.7434L290.15 96.8004H293.949L292.976 99.7207Z" fill="white" fill-opacity="0.1"/>
<path fill-rule="evenodd" clip-rule="evenodd" d="M277.366 114.965H274.175L283.724 85.471C284.364 83.5468 286.195 82.2337 288.353 82.2053C290.142 82.1958 291.113 82.1977 292.904 82.2053C296.78 82.2224 298.273 83.7385 299.179 86.2357C299.614 87.4349 299.653 89.1256 299.298 90.2471C298.379 93.0649 298.161 93.7177 297.23 96.5299C296.621 98.3401 294.972 99.5508 292.976 99.7121C292.976 99.7121 295.651 91.6437 296.485 89.008C296.989 87.3628 296.018 85.118 293.468 85.118C291.684 85.0971 290.569 85.1085 288.79 85.118C287.759 85.1313 286.855 85.7575 286.538 86.7101L277.366 114.965Z" fill="white" fill-opacity="0.1"/>
<path fill-rule="evenodd" clip-rule="evenodd" d="M354.386 51.1822H361.405L357.456 63.1804L354.239 63.1596L357.213 54.1026H353.412L354.386 51.1822Z" fill="white" fill-opacity="0.1"/>
<path fill-rule="evenodd" clip-rule="evenodd" d="M370.002 35.9384H373.194L363.635 65.4319C362.995 67.3561 361.164 68.6692 359.005 68.6976C357.216 68.7071 356.244 68.7052 354.453 68.6976C350.576 68.6805 349.083 67.1644 348.178 64.6672C347.743 63.468 347.704 61.7773 348.06 60.6558C348.98 57.838 349.198 57.1852 350.13 54.373C350.74 52.5628 352.388 51.3521 354.386 51.1909C354.386 51.1909 351.708 59.2592 350.873 61.8949C350.369 63.5401 351.339 65.7849 353.89 65.7849C355.674 65.8058 356.789 65.7944 358.569 65.7849C359.6 65.7716 360.504 65.1454 360.821 64.1928L370.002 35.9384Z" fill="white" fill-opacity="0.1"/>
<path fill-rule="evenodd" clip-rule="evenodd" d="M357.571 44.4137H350.553L354.499 32.4155L357.716 32.4363L354.744 41.4933H358.544L357.571 44.4137Z" fill="white" fill-opacity="0.1"/>
<path fill-rule="evenodd" clip-rule="evenodd" d="M341.961 59.6575H338.769L348.319 30.1639C348.959 28.2398 350.79 26.9267 352.948 26.8982C354.737 26.8887 355.708 26.8906 357.499 26.8982C361.375 26.9153 362.868 28.4314 363.774 30.9286C364.209 32.1278 364.248 33.8185 363.893 34.94C362.973 37.7579 362.756 38.4106 361.825 41.2228C361.215 43.0331 359.567 44.2437 357.57 44.405C357.57 44.405 360.246 36.3366 361.08 33.7009C361.584 32.0557 360.613 29.8109 358.063 29.8109C356.279 29.79 355.164 29.8014 353.384 29.8109C352.354 29.8242 351.45 30.4504 351.133 31.403L341.961 59.6575Z" fill="white" fill-opacity="0.1"/>
<path fill-rule="evenodd" clip-rule="evenodd" d="M363 81.9459H366.192L356.633 111.44C355.993 113.364 354.162 114.677 352.003 114.705C350.214 114.715 349.242 114.713 347.451 114.705C343.574 114.688 342.081 113.172 341.176 110.675C340.741 109.476 340.702 107.785 341.057 106.663C341.978 103.846 342.196 103.193 343.127 100.381C343.738 98.5703 345.386 97.3597 347.384 97.1984C347.384 97.1984 344.706 105.267 343.871 107.902C343.366 109.548 344.337 111.792 346.888 111.792C348.672 111.813 349.787 111.802 351.567 111.792C352.598 111.779 353.502 111.153 353.819 110.2L363 81.9459Z" fill="white" fill-opacity="0.1"/>
<path fill-rule="evenodd" clip-rule="evenodd" d="M350.569 90.4212H343.551L347.497 78.4229L350.713 78.4438L347.742 87.5008H351.542L350.569 90.4212Z" fill="white" fill-opacity="0.1"/>
<path fill-rule="evenodd" clip-rule="evenodd" d="M334.958 105.665H331.767L341.317 76.1714C341.957 74.2473 343.787 72.9342 345.946 72.9057C347.734 72.8962 348.706 72.8981 350.497 72.9057C354.373 72.9228 355.866 74.4389 356.772 76.9361C357.207 78.1354 357.246 79.8261 356.891 80.9475C355.971 83.7654 355.754 84.4181 354.823 87.2303C354.213 89.0406 352.565 90.2512 350.568 90.4125C350.568 90.4125 353.244 82.3441 354.078 79.7084C354.582 78.0632 353.61 75.8184 351.06 75.8184C349.277 75.7976 348.162 75.8089 346.382 75.8184C345.352 75.8317 344.448 76.4579 344.131 77.4105L334.958 105.665Z" fill="white" fill-opacity="0.1"/>
<path fill-rule="evenodd" clip-rule="evenodd" d="M321.844 78.8007H328.863L324.914 90.799L321.697 90.7781L324.67 81.7211H320.87L321.844 78.8007Z" fill="white" fill-opacity="0.1"/>
<path fill-rule="evenodd" clip-rule="evenodd" d="M337.459 63.5569H340.651L331.093 93.0505C330.453 94.9746 328.621 96.2877 326.463 96.3162C324.673 96.3257 323.702 96.3238 321.911 96.3162C318.034 96.2991 316.541 94.783 315.635 92.2858C315.2 91.0866 315.162 89.3959 315.517 88.2744C316.438 85.4566 316.655 84.8038 317.587 81.9916C318.197 80.1814 319.846 78.9707 321.843 78.8094C321.843 78.8094 319.165 86.8778 318.331 89.5135C317.826 91.1587 318.797 93.4035 321.347 93.4035C323.132 93.4244 324.247 93.413 326.027 93.4035C327.057 93.3902 327.962 92.764 328.279 91.8114L337.459 63.5569Z" fill="white" fill-opacity="0.1"/>
<path fill-rule="evenodd" clip-rule="evenodd" d="M325.029 72.0322H318.011L321.957 60.034L325.173 60.0548L322.202 69.1118H326.002L325.029 72.0322Z" fill="white" fill-opacity="0.1"/>
<path fill-rule="evenodd" clip-rule="evenodd" d="M309.418 87.2759H306.227L315.777 57.7824C316.416 55.8583 318.247 54.5452 320.405 54.5167C322.194 54.5073 323.165 54.5091 324.956 54.5167C328.832 54.5338 330.325 56.05 331.231 58.5471C331.666 59.7464 331.705 61.4371 331.351 62.5585C330.431 65.3764 330.213 66.0291 329.282 68.8413C328.673 70.6516 327.025 71.8622 325.028 72.0235C325.028 72.0235 327.703 63.9551 328.537 61.3194C329.041 59.6742 328.07 57.4294 325.52 57.4294C323.736 57.4086 322.621 57.42 320.842 57.4294C319.811 57.4427 318.907 58.0689 318.59 59.0215L309.418 87.2759Z" fill="white" fill-opacity="0.1"/>
</g>
<defs>
<clipPath id="clip0_35215_2333">
<rect width="170.74" height="326.291" fill="white" transform="scale(2.28417 0.956203)"/>
</clipPath>
</defs>
</svg>
