<svg width="462" height="304" viewBox="0 0 462 304" fill="none" xmlns="http://www.w3.org/2000/svg">
<g clip-path="url(#clip0_35215_2332)">
<path fill-rule="evenodd" clip-rule="evenodd" d="M350.978 3.86329H347.778L357.356 -25.7474C357.998 -27.6792 359.834 -28.9975 361.998 -29.0261C363.792 -29.0356 364.766 -29.0337 366.562 -29.0261C370.45 -29.0089 371.947 -27.4868 372.855 -24.9797C373.292 -23.7757 373.331 -22.0783 372.975 -20.9524C372.053 -18.1233 371.834 -17.4679 370.901 -14.6446C370.289 -12.8271 368.636 -11.6117 366.634 -11.4498C366.634 -11.4498 369.317 -19.5502 370.154 -22.1964C370.659 -23.8481 369.685 -26.1018 367.128 -26.1018C365.339 -26.1228 364.221 -26.1113 362.436 -26.1018C361.402 -26.0885 360.496 -25.4598 360.178 -24.5034L350.978 3.86329Z" fill="white" fill-opacity="0.1"/>
<path fill-rule="evenodd" clip-rule="evenodd" d="M363.427 -4.61865H370.467L366.506 7.42713L363.28 7.4062L366.262 -1.68672H362.45L363.427 -4.61865Z" fill="white" fill-opacity="0.1"/>
<path fill-rule="evenodd" clip-rule="evenodd" d="M379.093 -19.9602H382.294L372.715 9.65037C372.073 11.5821 370.238 12.9004 368.073 12.929C366.279 12.9385 365.305 12.9366 363.509 12.929C359.622 12.9119 358.124 11.3897 357.216 8.88262C356.779 7.67861 356.74 5.98121 357.096 4.85531C358.019 2.02627 358.237 1.37091 359.171 -1.45242C359.782 -3.26986 361.435 -4.4853 363.437 -4.64724C363.437 -4.64724 360.754 3.45318 359.918 6.09933C359.412 7.75103 360.386 10.0047 362.943 10.0047C364.732 10.0257 365.851 10.0143 367.635 10.0047C368.669 9.9914 369.575 9.3627 369.893 8.40635L379.093 -19.9602Z" fill="white" fill-opacity="0.1"/>
<path fill-rule="evenodd" clip-rule="evenodd" d="M198.687 176.656H191.647L195.608 164.61L198.834 164.631L195.852 173.724H199.663L198.687 176.656Z" fill="white" fill-opacity="0.1"/>
<path fill-rule="evenodd" clip-rule="evenodd" d="M183.02 191.998H179.82L189.398 162.387C190.04 160.455 191.876 159.137 194.04 159.109C195.834 159.099 196.808 159.101 198.605 159.109C202.492 159.126 203.989 160.648 204.898 163.155C205.334 164.359 205.373 166.056 205.017 167.182C204.095 170.011 203.876 170.667 202.943 173.49C202.331 175.307 200.678 176.523 198.676 176.685C198.676 176.685 201.359 168.584 202.196 165.938C202.701 164.287 201.727 162.033 199.17 162.033C197.381 162.012 196.263 162.023 194.478 162.033C193.445 162.046 192.538 162.675 192.22 163.631L183.02 191.998Z" fill="white" fill-opacity="0.1"/>
<path fill-rule="evenodd" clip-rule="evenodd" d="M295.382 91.7367H288.342L292.303 79.6909L295.529 79.7118L292.547 88.8047H296.358L295.382 91.7367Z" fill="white" fill-opacity="0.1"/>
<path fill-rule="evenodd" clip-rule="evenodd" d="M279.715 107.078H276.515L286.093 77.4676C286.735 75.5358 288.571 74.2175 290.735 74.1889C292.529 74.1794 293.503 74.1813 295.3 74.1889C299.187 74.2061 300.684 75.7282 301.593 78.2353C302.029 79.4393 302.068 81.1367 301.712 82.2626C300.79 85.0917 300.571 85.7471 299.638 88.5704C299.026 90.3878 297.373 91.6033 295.371 91.7652C295.371 91.7652 298.054 83.6648 298.891 81.0186C299.396 79.3669 298.422 77.1132 295.865 77.1132C294.076 77.0923 292.958 77.1037 291.173 77.1132C290.14 77.1265 289.233 77.7552 288.915 78.7116L279.715 107.078Z" fill="white" fill-opacity="0.1"/>
<path fill-rule="evenodd" clip-rule="evenodd" d="M317.76 117.023H324.8L320.839 129.069L317.613 129.048L320.595 119.955H316.783L317.76 117.023Z" fill="white" fill-opacity="0.1"/>
<path fill-rule="evenodd" clip-rule="evenodd" d="M333.426 101.681H336.627L327.049 131.292C326.407 133.224 324.571 134.542 322.406 134.571C320.612 134.58 319.638 134.578 317.842 134.571C313.955 134.553 312.458 133.031 311.549 130.524C311.113 129.32 311.074 127.623 311.43 126.497C312.352 123.668 312.57 123.013 313.504 120.189C314.115 118.372 315.768 117.156 317.771 116.994C317.771 116.994 315.087 125.095 314.251 127.741C313.746 129.393 314.719 131.646 317.277 131.646C319.066 131.667 320.184 131.656 321.969 131.646C323.002 131.633 323.909 131.004 324.227 130.048L333.426 101.681Z" fill="white" fill-opacity="0.1"/>
<path fill-rule="evenodd" clip-rule="evenodd" d="M105.185 222.861H112.225L108.264 234.907L105.038 234.886L108.02 225.793H104.209L105.185 222.861Z" fill="white" fill-opacity="0.1"/>
<path fill-rule="evenodd" clip-rule="evenodd" d="M120.852 207.519H124.052L114.474 237.13C113.832 239.062 111.996 240.38 109.832 240.409C108.038 240.418 107.064 240.416 105.267 240.409C101.38 240.391 99.8827 238.869 98.9743 236.362C98.5379 235.158 98.499 233.461 98.8548 232.335C99.7772 229.506 99.9955 228.851 100.929 226.027C101.541 224.21 103.194 222.994 105.196 222.832C105.196 222.832 102.513 230.933 101.676 233.579C101.171 235.231 102.145 237.484 104.702 237.484C106.491 237.505 107.609 237.494 109.394 237.484C110.427 237.471 111.334 236.842 111.652 235.886L120.852 207.519Z" fill="white" fill-opacity="0.1"/>
<path fill-rule="evenodd" clip-rule="evenodd" d="M227.854 155.122H234.894L230.933 167.168L227.706 167.147L230.689 158.054H226.877L227.854 155.122Z" fill="white" fill-opacity="0.1"/>
<path fill-rule="evenodd" clip-rule="evenodd" d="M243.52 139.78H246.721L237.142 169.391C236.5 171.323 234.664 172.641 232.5 172.67C230.706 172.679 229.732 172.677 227.936 172.67C224.049 172.652 222.551 171.13 221.643 168.623C221.206 167.419 221.167 165.722 221.523 164.596C222.446 161.767 222.664 161.112 223.598 158.288C224.209 156.471 225.862 155.255 227.864 155.093C227.864 155.093 225.181 163.194 224.344 165.84C223.839 167.492 224.813 169.745 227.37 169.745C229.159 169.766 230.278 169.755 232.062 169.745C233.096 169.732 234.002 169.103 234.32 168.147L243.52 139.78Z" fill="white" fill-opacity="0.1"/>
<path fill-rule="evenodd" clip-rule="evenodd" d="M156.591 258.337H163.631L159.67 270.383L156.444 270.362L159.426 261.269H155.614L156.591 258.337Z" fill="white" fill-opacity="0.1"/>
<path fill-rule="evenodd" clip-rule="evenodd" d="M172.257 242.995H175.458L165.879 272.606C165.238 274.538 163.402 275.856 161.237 275.885C159.443 275.894 158.469 275.892 156.673 275.885C152.786 275.868 151.288 274.345 150.38 271.838C149.944 270.634 149.905 268.937 150.26 267.811C151.183 264.982 151.401 264.327 152.335 261.503C152.946 259.686 154.599 258.47 156.602 258.308C156.602 258.308 153.918 266.409 153.082 269.055C152.576 270.707 153.55 272.96 156.108 272.96C157.897 272.981 159.015 272.97 160.799 272.96C161.833 272.947 162.74 272.318 163.058 271.362L172.257 242.995Z" fill="white" fill-opacity="0.1"/>
<path fill-rule="evenodd" clip-rule="evenodd" d="M437.09 -29.9276H440.291L430.713 -0.317029C430.071 1.61472 428.235 2.93303 426.07 2.9616C424.276 2.97113 423.302 2.96922 421.506 2.9616C417.619 2.94446 416.121 1.4223 415.213 -1.08478C414.777 -2.28879 414.738 -3.98619 415.093 -5.11209C416.016 -7.94113 416.234 -8.5965 417.168 -11.4198C417.779 -13.2373 419.432 -14.4527 421.435 -14.6146C421.435 -14.6146 418.751 -6.51423 417.915 -3.86807C417.409 -2.21637 418.383 0.0373359 420.941 0.0373359C422.73 0.0582918 423.848 0.0468613 425.632 0.0373359C426.666 0.0240004 427.573 -0.604701 427.891 -1.56105L437.09 -29.9276Z" fill="white" fill-opacity="0.1"/>
<path fill-rule="evenodd" clip-rule="evenodd" d="M435.949 11.7321H432.748L442.327 -17.8785C442.969 -19.8102 444.805 -21.1285 446.969 -21.1571C448.763 -21.1666 449.737 -21.1647 451.533 -21.1571C455.421 -21.14 456.918 -19.6178 457.826 -17.1107C458.263 -15.9067 458.302 -14.2093 457.946 -13.0834C457.023 -10.2544 456.805 -9.599 455.872 -6.77567C455.26 -4.95823 453.607 -3.74278 451.605 -3.58085C451.605 -3.58085 454.288 -11.6813 455.125 -14.3274C455.63 -15.9791 454.656 -18.2328 452.099 -18.2328C450.31 -18.2538 449.192 -18.2424 447.407 -18.2328C446.373 -18.2195 445.467 -17.5908 445.149 -16.6344L435.949 11.7321Z" fill="white" fill-opacity="0.1"/>
<path fill-rule="evenodd" clip-rule="evenodd" d="M283.641 184.525H276.601L280.562 172.479L283.788 172.5L280.806 181.593H284.618L283.641 184.525Z" fill="white" fill-opacity="0.1"/>
<path fill-rule="evenodd" clip-rule="evenodd" d="M267.975 199.867H264.774L274.353 170.256C274.994 168.324 276.83 167.006 278.995 166.978C280.789 166.968 281.763 166.97 283.559 166.978C287.446 166.995 288.944 168.517 289.852 171.024C290.289 172.228 290.328 173.925 289.972 175.051C289.049 177.88 288.831 178.536 287.897 181.359C287.286 183.176 285.633 184.392 283.63 184.554C283.63 184.554 286.314 176.453 287.15 173.807C287.656 172.156 286.682 169.902 284.125 169.902C282.336 169.881 281.217 169.892 279.433 169.902C278.399 169.915 277.493 170.544 277.175 171.5L267.975 199.867Z" fill="white" fill-opacity="0.1"/>
<path fill-rule="evenodd" clip-rule="evenodd" d="M234.495 107.383H241.535L237.574 119.429L234.347 119.408L237.33 110.315H233.518L234.495 107.383Z" fill="white" fill-opacity="0.1"/>
<path fill-rule="evenodd" clip-rule="evenodd" d="M250.161 92.0419H253.361L243.783 121.652C243.141 123.584 241.305 124.903 239.141 124.931C237.347 124.941 236.373 124.939 234.577 124.931C230.689 124.914 229.192 123.392 228.284 120.885C227.847 119.681 227.808 117.983 228.164 116.857C229.087 114.028 229.305 113.373 230.239 110.55C230.85 108.732 232.503 107.517 234.505 107.355C234.505 107.355 231.822 115.455 230.985 118.101C230.48 119.753 231.454 122.007 234.011 122.007C235.8 122.028 236.918 122.016 238.703 122.007C239.737 121.994 240.643 121.365 240.961 120.408L250.161 92.0419Z" fill="white" fill-opacity="0.1"/>
<path fill-rule="evenodd" clip-rule="evenodd" d="M69.7545 288.658H62.7146L66.6755 276.613L69.9018 276.634L66.9195 285.726H70.7313L69.7545 288.658Z" fill="white" fill-opacity="0.1"/>
<path fill-rule="evenodd" clip-rule="evenodd" d="M54.0883 304H50.8877L60.466 274.389C61.1078 272.458 62.9438 271.139 65.1083 271.111C66.9023 271.101 67.8763 271.103 69.6726 271.111C73.5597 271.128 75.0572 272.65 75.9656 275.157C76.402 276.361 76.4409 278.058 76.0851 279.184C75.1627 282.013 74.9444 282.669 74.0107 285.492C73.3994 287.31 71.7463 288.525 69.7438 288.687C69.7438 288.687 72.4273 280.586 73.2637 277.94C73.7692 276.289 72.7954 274.035 70.2379 274.035C68.4489 274.014 67.3307 274.025 65.5461 274.035C64.5125 274.048 63.6059 274.677 63.2879 275.633L54.0883 304Z" fill="white" fill-opacity="0.1"/>
<path fill-rule="evenodd" clip-rule="evenodd" d="M360.118 34.8175H353.078L357.039 22.7717L360.265 22.7927L357.283 31.8856H361.095L360.118 34.8175Z" fill="white" fill-opacity="0.1"/>
<path fill-rule="evenodd" clip-rule="evenodd" d="M344.452 50.1591H341.251L350.83 20.5485C351.472 18.6167 353.308 17.2984 355.472 17.2699C357.266 17.2603 358.24 17.2622 360.036 17.2699C363.923 17.287 365.421 18.8092 366.329 21.3162C366.766 22.5202 366.805 24.2177 366.449 25.3436C365.526 28.1726 365.308 28.828 364.374 31.6513C363.763 33.4687 362.11 34.6842 360.108 34.8461C360.108 34.8461 362.791 26.7457 363.627 24.0995C364.133 22.4478 363.159 20.1941 360.602 20.1941C358.813 20.1732 357.694 20.1846 355.91 20.1941C354.876 20.2075 353.97 20.8362 353.652 21.7925L344.452 50.1591Z" fill="white" fill-opacity="0.1"/>
<path fill-rule="evenodd" clip-rule="evenodd" d="M-12.7154 158.358H-15.9161L-6.33642 128.747C-5.69459 126.815 -3.85849 125.497 -1.69385 125.468C0.10019 125.459 1.07417 125.461 2.87062 125.468C6.7578 125.485 8.25527 127.008 9.16364 129.515C9.6 130.719 9.63885 132.416 9.28297 133.542C8.36041 136.371 8.14211 137.026 7.20827 139.85C6.59687 141.667 4.94372 142.883 2.94111 143.045C2.94111 143.045 5.62498 134.944 6.46158 132.298C6.96708 130.646 5.99332 128.393 3.43574 128.393C1.64676 128.372 0.528499 128.383 -1.2562 128.393C-2.28978 128.406 -3.19649 129.035 -3.51446 129.991L-12.7154 158.358Z" fill="white" fill-opacity="0.1"/>
<path fill-rule="evenodd" clip-rule="evenodd" d="M-0.265767 149.876H6.77405L2.81322 161.922L-0.413057 161.901L2.56913 152.808H-1.24257L-0.265767 149.876Z" fill="white" fill-opacity="0.1"/>
<path fill-rule="evenodd" clip-rule="evenodd" d="M15.4004 134.534H18.601L9.02266 164.145C8.38092 166.076 6.54493 167.395 4.38035 167.423C2.58638 167.433 1.61243 167.431 -0.18396 167.423C-4.07101 167.406 -5.56849 165.884 -6.47691 163.377C-6.9133 162.173 -6.95221 160.476 -6.59639 159.35C-5.67396 156.521 -5.45569 155.865 -4.52198 153.042C-3.91067 151.224 -2.25762 150.009 -0.255079 149.847C-0.255079 149.847 -2.93857 157.948 -3.77504 160.594C-4.28047 162.245 -3.30667 164.499 -0.749171 164.499C1.03975 164.52 2.15798 164.509 3.94262 164.499C4.97616 164.486 5.88282 163.857 6.20074 162.901L15.4004 134.534Z" fill="white" fill-opacity="0.1"/>
<path fill-rule="evenodd" clip-rule="evenodd" d="M100.089 56.2602H93.0492L97.0105 44.2144L100.237 44.2354L97.2543 53.3283H101.066L100.089 56.2602Z" fill="white" fill-opacity="0.1"/>
<path fill-rule="evenodd" clip-rule="evenodd" d="M84.4223 71.6018H81.2216L90.8014 41.9912C91.4432 40.0595 93.2793 38.7412 95.444 38.7126C97.238 38.7031 98.212 38.705 100.008 38.7126C103.896 38.7297 105.393 40.2519 106.301 42.759C106.738 43.963 106.777 45.6604 106.421 46.7863C105.498 49.6153 105.28 50.2707 104.346 53.094C103.735 54.9115 102.082 56.1269 100.079 56.2888C100.079 56.2888 102.763 48.1884 103.599 45.5423C104.105 43.8906 103.131 41.6369 100.574 41.6369C98.7846 41.6159 97.6663 41.6273 95.8816 41.6369C94.848 41.6502 93.9413 42.2789 93.6234 43.2352L84.4223 71.6018Z" fill="white" fill-opacity="0.1"/>
<path fill-rule="evenodd" clip-rule="evenodd" d="M96.872 63.12H103.912L99.951 75.1658L96.7247 75.1449L99.7069 66.0519H95.8952L96.872 63.12Z" fill="white" fill-opacity="0.1"/>
<path fill-rule="evenodd" clip-rule="evenodd" d="M112.538 47.7784H115.739L106.16 77.389C105.519 79.3208 103.683 80.6391 101.518 80.6677C99.724 80.6772 98.7501 80.6753 96.9537 80.6677C93.0666 80.6505 91.5691 79.1284 90.6607 76.6213C90.2243 75.4173 90.1854 73.7199 90.5412 72.594C91.4637 69.7649 91.6819 69.1096 92.6156 66.2862C93.227 64.4688 94.88 63.2533 96.8825 63.0914C96.8825 63.0914 94.1991 71.1918 93.3626 73.838C92.8572 75.4897 93.831 77.7434 96.3885 77.7434C98.1774 77.7644 99.2956 77.7529 101.08 77.7434C102.114 77.7301 103.02 77.1014 103.338 76.145L112.538 47.7784Z" fill="white" fill-opacity="0.1"/>
<path fill-rule="evenodd" clip-rule="evenodd" d="M28.8266 159.475H21.7866L25.7479 147.429L28.9743 147.45L25.9917 156.543H29.8035L28.8266 159.475Z" fill="white" fill-opacity="0.1"/>
<path fill-rule="evenodd" clip-rule="evenodd" d="M13.1596 174.817H9.95888L19.5386 145.206C20.1805 143.274 22.0166 141.956 24.1812 141.928C25.9752 141.918 26.9492 141.92 28.7457 141.928C32.6328 141.945 34.1303 143.467 35.0387 145.974C35.475 147.178 35.5139 148.875 35.158 150.001C34.2354 152.83 34.0171 153.486 33.0833 156.309C32.4719 158.126 30.8187 159.342 28.8161 159.504C28.8161 159.504 31.5 151.403 32.3366 148.757C32.8421 147.106 31.8684 144.852 29.3108 144.852C27.5218 144.831 26.4035 144.842 24.6188 144.852C23.5853 144.865 22.6785 145.494 22.3606 146.45L13.1596 174.817Z" fill="white" fill-opacity="0.1"/>
<path fill-rule="evenodd" clip-rule="evenodd" d="M25.6092 166.335H32.649L28.6882 178.381L25.4619 178.36L28.4441 169.267H24.6324L25.6092 166.335Z" fill="white" fill-opacity="0.1"/>
<path fill-rule="evenodd" clip-rule="evenodd" d="M41.2754 150.993H44.4759L34.8976 180.604C34.2559 182.536 32.4199 183.854 30.2553 183.883C28.4614 183.892 27.4874 183.89 25.691 183.883C21.804 183.866 20.3065 182.343 19.3981 179.836C18.9617 178.632 18.9228 176.935 19.2786 175.809C20.201 172.98 20.4193 172.325 21.353 169.501C21.9643 167.684 23.6174 166.468 25.6199 166.306C25.6199 166.306 22.9364 174.407 22.0999 177.053C21.5945 178.705 22.5683 180.958 25.1258 180.958C26.9147 180.979 28.033 180.968 29.8176 180.958C30.8511 180.945 31.7578 180.316 32.0757 179.36L41.2754 150.993Z" fill="white" fill-opacity="0.1"/>
<path fill-rule="evenodd" clip-rule="evenodd" d="M125.604 75.277H118.564L122.525 63.2312L125.751 63.2521L122.769 72.3451H126.581L125.604 75.277Z" fill="white" fill-opacity="0.1"/>
<path fill-rule="evenodd" clip-rule="evenodd" d="M109.937 90.6186H106.736L116.316 61.008C116.958 59.0762 118.794 57.7579 120.958 57.7293C122.752 57.7198 123.726 57.7217 125.523 57.7293C129.41 57.7465 130.907 59.2686 131.816 61.7757C132.252 62.9797 132.291 64.6771 131.935 65.803C131.013 68.6321 130.794 69.2874 129.86 72.1108C129.249 73.9282 127.596 75.1437 125.593 75.3056C125.593 75.3056 128.277 67.2052 129.114 64.559C129.619 62.9073 128.646 60.6536 126.088 60.6536C124.299 60.6326 123.181 60.6441 121.396 60.6536C120.362 60.6669 119.456 61.2956 119.138 62.252L109.937 90.6186Z" fill="white" fill-opacity="0.1"/>
<path fill-rule="evenodd" clip-rule="evenodd" d="M122.386 82.1367H129.426L125.465 94.1825L122.239 94.1616L125.221 85.0686H121.41L122.386 82.1367Z" fill="white" fill-opacity="0.1"/>
<path fill-rule="evenodd" clip-rule="evenodd" d="M138.052 66.7952H141.253L131.675 96.4058C131.033 98.3375 129.197 99.6559 127.032 99.6844C125.238 99.694 124.264 99.6921 122.468 99.6844C118.581 99.6673 117.084 98.1451 116.175 95.638C115.739 94.434 115.7 92.7366 116.056 91.6107C116.978 88.7817 117.196 88.1263 118.13 85.303C118.741 83.4856 120.394 82.2701 122.397 82.1082C122.397 82.1082 119.713 90.2086 118.877 92.8548C118.372 94.5065 119.345 96.7602 121.903 96.7602C123.692 96.7811 124.81 96.7697 126.595 96.7602C127.628 96.7468 128.535 96.1181 128.853 95.1618L138.052 66.7952Z" fill="white" fill-opacity="0.1"/>
<path fill-rule="evenodd" clip-rule="evenodd" d="M206.648 5.69894H203.447L213.027 -23.9117C213.669 -25.8434 215.505 -27.1617 217.67 -27.1903C219.464 -27.1998 220.438 -27.1979 222.234 -27.1903C226.121 -27.1732 227.619 -25.651 228.527 -23.1439C228.963 -21.9399 229.002 -20.2425 228.646 -19.1166C227.724 -16.2876 227.506 -15.6322 226.572 -12.8089C225.96 -10.9914 224.307 -9.77598 222.305 -9.61405C222.305 -9.61405 224.988 -17.7145 225.825 -20.3606C226.331 -22.0123 225.357 -24.266 222.799 -24.266C221.01 -24.287 219.892 -24.2756 218.107 -24.266C217.074 -24.2527 216.167 -23.624 215.849 -22.6676L206.648 5.69894Z" fill="white" fill-opacity="0.1"/>
<path fill-rule="evenodd" clip-rule="evenodd" d="M219.097 -2.78287H226.137L222.176 9.26293L218.95 9.242L221.932 0.149071H218.121L219.097 -2.78287Z" fill="white" fill-opacity="0.1"/>
<path fill-rule="evenodd" clip-rule="evenodd" d="M234.764 -18.1244H237.964L228.386 11.4862C227.744 13.4179 225.908 14.7362 223.744 14.7648C221.95 14.7743 220.976 14.7724 219.179 14.7648C215.292 14.7477 213.795 13.2255 212.886 10.7184C212.45 9.51441 212.411 7.817 212.767 6.6911C213.689 3.86206 213.908 3.2067 214.841 0.383372C215.453 -1.43407 217.106 -2.64951 219.108 -2.81145C219.108 -2.81145 216.425 5.28897 215.588 7.93512C215.083 9.58683 216.057 11.8405 218.614 11.8405C220.403 11.8615 221.521 11.8501 223.306 11.8405C224.339 11.8272 225.246 11.1985 225.564 10.2421L234.764 -18.1244Z" fill="white" fill-opacity="0.1"/>
<path fill-rule="evenodd" clip-rule="evenodd" d="M54.3408 178.492H47.3008L51.2621 166.446L54.4885 166.467L51.5059 175.56H55.3178L54.3408 178.492Z" fill="white" fill-opacity="0.1"/>
<path fill-rule="evenodd" clip-rule="evenodd" d="M38.6738 193.834H35.4731L45.0528 164.223C45.6947 162.291 47.5308 160.973 49.6954 160.944C51.4895 160.935 52.4634 160.937 54.2599 160.944C58.1471 160.962 59.6445 162.484 60.5529 164.991C60.9892 166.195 61.0281 167.892 60.6722 169.018C59.7496 171.847 59.5313 172.502 58.5975 175.326C57.9861 177.143 56.3329 178.359 54.3303 178.521C54.3303 178.521 57.0142 170.42 57.8508 167.774C58.3563 166.122 57.3826 163.869 54.825 163.869C53.036 163.848 51.9178 163.859 50.1331 163.869C49.0995 163.882 48.1928 164.511 47.8748 165.467L38.6738 193.834Z" fill="white" fill-opacity="0.1"/>
<path fill-rule="evenodd" clip-rule="evenodd" d="M51.1234 185.352H58.1633L54.2024 197.398L50.9762 197.377L53.9583 188.284H50.1466L51.1234 185.352Z" fill="white" fill-opacity="0.1"/>
<path fill-rule="evenodd" clip-rule="evenodd" d="M66.7896 170.01H69.9902L60.4119 199.621C59.7701 201.553 57.9341 202.871 55.7696 202.899C53.9756 202.909 53.0016 202.907 51.2053 202.899C47.3182 202.882 45.8207 201.36 44.9123 198.853C44.4759 197.649 44.437 195.952 44.7928 194.826C45.7152 191.997 45.9335 191.341 46.8672 188.518C47.4785 186.701 49.1316 185.485 51.1341 185.323C51.1341 185.323 48.4506 193.424 47.6142 196.07C47.1087 197.721 48.0825 199.975 50.64 199.975C52.429 199.996 53.5472 199.985 55.3318 199.975C56.3654 199.962 57.272 199.333 57.59 198.377L66.7896 170.01Z" fill="white" fill-opacity="0.1"/>
<path fill-rule="evenodd" clip-rule="evenodd" d="M151.216 93.7048H144.176L148.138 81.659L151.364 81.6799L148.381 90.7728H152.193L151.216 93.7048Z" fill="white" fill-opacity="0.1"/>
<path fill-rule="evenodd" clip-rule="evenodd" d="M135.549 109.046H132.348L141.928 79.4357C142.57 77.504 144.406 76.1857 146.571 76.1571C148.365 76.1476 149.339 76.1495 151.135 76.1571C155.022 76.1742 156.52 77.6964 157.428 80.2035C157.865 81.4075 157.903 83.1049 157.548 84.2308C156.625 87.0598 156.407 87.7152 155.473 90.5385C154.861 92.356 153.208 93.5714 151.206 93.7333C151.206 93.7333 153.89 85.6329 154.726 82.9868C155.232 81.3351 154.258 79.0814 151.7 79.0814C149.911 79.0604 148.793 79.0718 147.008 79.0814C145.975 79.0947 145.068 79.7234 144.75 80.6797L135.549 109.046Z" fill="white" fill-opacity="0.1"/>
<path fill-rule="evenodd" clip-rule="evenodd" d="M147.999 100.565H155.039L151.078 112.61L147.851 112.589L150.834 103.496H147.022L147.999 100.565Z" fill="white" fill-opacity="0.1"/>
<path fill-rule="evenodd" clip-rule="evenodd" d="M163.665 85.2229H166.866L157.287 114.834C156.645 116.765 154.809 118.084 152.645 118.112C150.851 118.122 149.877 118.12 148.081 118.112C144.194 118.095 142.696 116.573 141.788 114.066C141.351 112.862 141.312 111.164 141.668 110.038C142.591 107.209 142.809 106.554 143.743 103.731C144.354 101.913 146.007 100.698 148.009 100.536C148.009 100.536 145.326 108.636 144.49 111.282C143.984 112.934 144.958 115.188 147.515 115.188C149.304 115.209 150.423 115.197 152.207 115.188C153.241 115.175 154.147 114.546 154.465 113.59L163.665 85.2229Z" fill="white" fill-opacity="0.1"/>
<path fill-rule="evenodd" clip-rule="evenodd" d="M247.911 8.78453H240.871L244.832 -3.26126L248.059 -3.24033L245.076 5.85259H248.888L247.911 8.78453Z" fill="white" fill-opacity="0.1"/>
<path fill-rule="evenodd" clip-rule="evenodd" d="M232.244 24.1261H229.043L238.623 -5.4845C239.265 -7.41625 241.101 -8.73455 243.266 -8.76313C245.06 -8.77265 246.034 -8.77075 247.83 -8.76313C251.717 -8.74598 253.215 -7.22383 254.123 -4.71675C254.56 -3.51274 254.598 -1.81533 254.243 -0.689432C253.32 2.13961 253.102 2.79498 252.168 5.6183C251.556 7.43574 249.903 8.65119 247.901 8.81312C247.901 8.81312 250.585 0.7127 251.421 -1.93345C251.927 -3.58516 250.953 -5.83886 248.395 -5.83886C246.606 -5.85982 245.488 -5.84839 243.703 -5.83886C242.67 -5.82553 241.763 -5.19683 241.445 -4.24048L232.244 24.1261Z" fill="white" fill-opacity="0.1"/>
<path fill-rule="evenodd" clip-rule="evenodd" d="M244.694 15.6443H251.733L247.773 27.6901L244.546 27.6692L247.529 18.5762H243.717L244.694 15.6443Z" fill="white" fill-opacity="0.1"/>
<path fill-rule="evenodd" clip-rule="evenodd" d="M260.36 0.302737H263.56L253.982 29.9133C253.34 31.8451 251.504 33.1634 249.34 33.192C247.546 33.2015 246.572 33.1996 244.775 33.192C240.888 33.1748 239.391 31.6527 238.483 29.1456C238.046 27.9416 238.007 26.2442 238.363 25.1183C239.285 22.2892 239.504 21.6339 240.437 18.8105C241.049 16.9931 242.702 15.7777 244.704 15.6157C244.704 15.6157 242.021 23.7161 241.184 26.3623C240.679 28.014 241.653 30.2677 244.21 30.2677C245.999 30.2887 247.117 30.2772 248.902 30.2677C249.936 30.2544 250.842 29.6257 251.16 28.6693L260.36 0.302737Z" fill="white" fill-opacity="0.1"/>
<path fill-rule="evenodd" clip-rule="evenodd" d="M79.9534 196.919H72.9134L76.8747 184.873L80.1011 184.894L77.1185 193.987H80.9304L79.9534 196.919Z" fill="white" fill-opacity="0.1"/>
<path fill-rule="evenodd" clip-rule="evenodd" d="M64.2864 212.26H61.0857L70.6655 182.65C71.3073 180.718 73.1434 179.4 75.308 179.371C77.1021 179.361 78.0761 179.363 79.8725 179.371C83.7597 179.388 85.2572 180.91 86.1655 183.417C86.6019 184.621 86.6407 186.319 86.2848 187.445C85.3623 190.274 85.144 190.929 84.2101 193.752C83.5987 195.57 81.9456 196.785 79.943 196.947C79.943 196.947 82.6268 188.847 83.4634 186.201C83.9689 184.549 82.9952 182.295 80.4376 182.295C78.6486 182.274 77.5304 182.286 75.7457 182.295C74.7121 182.309 73.8054 182.937 73.4874 183.894L64.2864 212.26Z" fill="white" fill-opacity="0.1"/>
<path fill-rule="evenodd" clip-rule="evenodd" d="M76.7359 203.778H83.7757L79.8149 215.824L76.5886 215.803L79.5708 206.71H75.7591L76.7359 203.778Z" fill="white" fill-opacity="0.1"/>
<path fill-rule="evenodd" clip-rule="evenodd" d="M92.402 188.437H95.6026L86.0243 218.047C85.3826 219.979 83.5466 221.297 81.382 221.326C79.5881 221.336 78.6141 221.334 76.8177 221.326C72.9307 221.309 71.4332 219.787 70.5248 217.28C70.0884 216.076 70.0495 214.378 70.4053 213.252C71.3277 210.423 71.546 209.768 72.4797 206.945C73.091 205.127 74.7441 203.912 76.7466 203.75C76.7466 203.75 74.0631 211.85 73.2266 214.496C72.7212 216.148 73.695 218.402 76.2525 218.402C78.0414 218.423 79.1597 218.411 80.9443 218.402C81.9778 218.388 82.8845 217.76 83.2024 216.803L92.402 188.437Z" fill="white" fill-opacity="0.1"/>
<path fill-rule="evenodd" clip-rule="evenodd" d="M178.173 111.54H171.133L175.095 99.4942L178.321 99.5151L175.338 108.608H179.15L178.173 111.54Z" fill="white" fill-opacity="0.1"/>
<path fill-rule="evenodd" clip-rule="evenodd" d="M162.506 126.882H159.306L168.885 97.271C169.527 95.3392 171.363 94.0209 173.528 93.9924C175.322 93.9828 176.296 93.9847 178.092 93.9924C181.98 94.0095 183.477 95.5317 184.385 98.0387C184.822 99.2427 184.861 100.94 184.505 102.066C183.582 104.895 183.364 105.55 182.43 108.374C181.819 110.191 180.166 111.407 178.163 111.569C178.163 111.569 180.847 103.468 181.683 100.822C182.189 99.1703 181.215 96.9166 178.658 96.9166C176.869 96.8957 175.75 96.9071 173.966 96.9166C172.932 96.93 172.025 97.5587 171.707 98.515L162.506 126.882Z" fill="white" fill-opacity="0.1"/>
<path fill-rule="evenodd" clip-rule="evenodd" d="M174.956 118.4H181.996L178.035 130.445L174.809 130.425L177.791 121.332H173.979L174.956 118.4Z" fill="white" fill-opacity="0.1"/>
<path fill-rule="evenodd" clip-rule="evenodd" d="M190.622 103.058H193.823L184.244 132.669C183.603 134.601 181.767 135.919 179.602 135.947C177.808 135.957 176.834 135.955 175.038 135.947C171.151 135.93 169.653 134.408 168.745 131.901C168.308 130.697 168.269 129 168.625 127.874C169.548 125.045 169.766 124.389 170.7 121.566C171.311 119.749 172.964 118.533 174.967 118.371C174.967 118.371 172.283 126.472 171.447 129.118C170.941 130.769 171.915 133.023 174.472 133.023C176.261 133.044 177.38 133.033 179.164 133.023C180.198 133.01 181.104 132.381 181.422 131.425L190.622 103.058Z" fill="white" fill-opacity="0.1"/>
<path fill-rule="evenodd" clip-rule="evenodd" d="M274.885 26.6209H267.845L271.806 14.5751L275.032 14.5961L272.05 23.689H275.862L274.885 26.6209Z" fill="white" fill-opacity="0.1"/>
<path fill-rule="evenodd" clip-rule="evenodd" d="M259.218 41.9625H256.017L265.597 12.3519C266.239 10.4201 268.075 9.10184 270.239 9.07326C272.033 9.06374 273.007 9.06564 274.804 9.07326C278.691 9.09041 280.188 10.6126 281.097 13.1196C281.533 14.3237 281.572 16.0211 281.216 17.147C280.294 19.976 280.075 20.6314 279.141 23.4547C278.53 25.2721 276.877 26.4876 274.874 26.6495C274.874 26.6495 277.558 18.5491 278.395 15.9029C278.9 14.2512 277.927 11.9975 275.369 11.9975C273.58 11.9766 272.462 11.988 270.677 11.9975C269.643 12.0109 268.737 12.6396 268.419 13.5959L259.218 41.9625Z" fill="white" fill-opacity="0.1"/>
<path fill-rule="evenodd" clip-rule="evenodd" d="M271.667 33.4801H278.707L274.746 45.5259L271.52 45.5049L274.502 36.412H270.69L271.667 33.4801Z" fill="white" fill-opacity="0.1"/>
<path fill-rule="evenodd" clip-rule="evenodd" d="M287.333 18.1385H290.534L280.956 47.7492C280.314 49.6809 278.478 50.9992 276.313 51.0278C274.519 51.0373 273.545 51.0354 271.749 51.0278C267.862 51.0106 266.365 49.4885 265.456 46.9814C265.02 45.7774 264.981 44.08 265.337 42.9541C266.259 40.125 266.477 39.4697 267.411 36.6464C268.022 34.8289 269.675 33.6135 271.678 33.4515C271.678 33.4515 268.994 41.552 268.158 44.1981C267.653 45.8498 268.626 48.1035 271.184 48.1035C272.973 48.1245 274.091 48.113 275.876 48.1035C276.909 48.0902 277.816 47.4615 278.134 46.5051L287.333 18.1385Z" fill="white" fill-opacity="0.1"/>
<path fill-rule="evenodd" clip-rule="evenodd" d="M35.3527 114.622H28.3127L32.274 102.576L35.5004 102.597L32.5178 111.69H36.3297L35.3527 114.622Z" fill="white" fill-opacity="0.1"/>
<path fill-rule="evenodd" clip-rule="evenodd" d="M19.6857 129.964H16.485L26.0647 100.353C26.7066 98.4212 28.5427 97.1029 30.7073 97.0743C32.5014 97.0648 33.4753 97.0667 35.2718 97.0743C39.159 97.0914 40.6564 98.6136 41.5648 101.121C42.0011 102.325 42.04 104.022 41.6841 105.148C40.7615 107.977 40.5432 108.632 39.6094 111.456C38.998 113.273 37.3448 114.489 35.3422 114.651C35.3422 114.651 38.0261 106.55 38.8627 103.904C39.3682 102.252 38.3945 99.9986 35.8369 99.9986C34.0479 99.9776 32.9297 99.989 31.145 99.9986C30.1114 100.012 29.2047 100.641 28.8867 101.597L19.6857 129.964Z" fill="white" fill-opacity="0.1"/>
<path fill-rule="evenodd" clip-rule="evenodd" d="M32.1353 121.482H39.1752L35.2143 133.527L31.9881 133.507L34.9702 124.414H31.1585L32.1353 121.482Z" fill="white" fill-opacity="0.1"/>
<path fill-rule="evenodd" clip-rule="evenodd" d="M47.8015 106.14H51.0021L41.4238 135.751C40.782 137.683 38.946 139.001 36.7815 139.029C34.9875 139.039 34.0135 139.037 32.2171 139.029C28.3301 139.012 26.8326 137.49 25.9242 134.983C25.4878 133.779 25.4489 132.082 25.8047 130.956C26.7271 128.127 26.9454 127.471 27.8791 124.648C28.4904 122.831 30.1435 121.615 32.146 121.453C32.146 121.453 29.4625 129.554 28.6261 132.2C28.1206 133.851 29.0944 136.105 31.6519 136.105C33.4409 136.126 34.5591 136.115 36.3437 136.105C37.3773 136.092 38.2839 135.463 38.6018 134.507L47.8015 106.14Z" fill="white" fill-opacity="0.1"/>
<path fill-rule="evenodd" clip-rule="evenodd" d="M132.49 27.8013H125.45L129.412 15.7555L132.638 15.7764L129.656 24.8694H133.467L132.49 27.8013Z" fill="white" fill-opacity="0.1"/>
<path fill-rule="evenodd" clip-rule="evenodd" d="M116.823 43.1429H113.623L123.203 13.5322C123.844 11.6005 125.68 10.2822 127.845 10.2536C129.639 10.2441 130.613 10.246 132.41 10.2536C136.297 10.2708 137.794 11.7929 138.703 14.3C139.139 15.504 139.178 17.2014 138.822 18.3273C137.899 21.1564 137.681 21.8117 136.747 24.635C136.136 26.4525 134.483 27.6679 132.48 27.8299C132.48 27.8299 135.164 19.7294 136 17.0833C136.506 15.4316 135.532 13.1779 132.975 13.1779C131.186 13.1569 130.067 13.1684 128.283 13.1779C127.249 13.1912 126.342 13.8199 126.024 14.7763L116.823 43.1429Z" fill="white" fill-opacity="0.1"/>
<path fill-rule="evenodd" clip-rule="evenodd" d="M129.273 34.6605H136.313L132.352 46.7063L129.126 46.6853L132.108 37.5924H128.296L129.273 34.6605Z" fill="white" fill-opacity="0.1"/>
<path fill-rule="evenodd" clip-rule="evenodd" d="M144.939 19.3189H148.14L138.562 48.9295C137.92 50.8613 136.084 52.1796 133.919 52.2081C132.125 52.2177 131.151 52.2158 129.355 52.2081C125.468 52.191 123.97 50.6688 123.062 48.1618C122.626 46.9578 122.587 45.2603 122.942 44.1344C123.865 41.3054 124.083 40.65 125.017 37.8267C125.628 36.0093 127.281 34.7938 129.284 34.6319C129.284 34.6319 126.6 42.7323 125.764 45.3785C125.258 47.0302 126.232 49.2839 128.79 49.2839C130.579 49.3048 131.697 49.2934 133.481 49.2839C134.515 49.2705 135.422 48.6418 135.74 47.6855L144.939 19.3189Z" fill="white" fill-opacity="0.1"/>
<path fill-rule="evenodd" clip-rule="evenodd" d="M61.2277 131.016H54.1877L58.149 118.97L61.3754 118.991L58.3928 128.084H62.2046L61.2277 131.016Z" fill="white" fill-opacity="0.1"/>
<path fill-rule="evenodd" clip-rule="evenodd" d="M45.5607 146.357H42.36L51.9397 116.747C52.5816 114.815 54.4177 113.497 56.5823 113.468C58.3763 113.459 59.3503 113.46 61.1468 113.468C65.0339 113.485 66.5314 115.007 67.4398 117.514C67.8761 118.718 67.915 120.416 67.5591 121.542C66.6365 124.371 66.4182 125.026 65.4844 127.85C64.873 129.667 63.2198 130.882 61.2172 131.044C61.2172 131.044 63.9011 122.944 64.7377 120.298C65.2432 118.646 64.2695 116.392 61.7119 116.392C59.9229 116.371 58.8046 116.383 57.0199 116.392C55.9864 116.406 55.0797 117.034 54.7617 117.991L45.5607 146.357Z" fill="white" fill-opacity="0.1"/>
<path fill-rule="evenodd" clip-rule="evenodd" d="M58.0103 137.876H65.0501L61.0893 149.921L57.863 149.9L60.8452 140.807H57.0335L58.0103 137.876Z" fill="white" fill-opacity="0.1"/>
<path fill-rule="evenodd" clip-rule="evenodd" d="M73.6765 122.534H76.877L67.2987 152.145C66.657 154.076 64.821 155.395 62.6564 155.423C60.8625 155.433 59.8885 155.431 58.0921 155.423C54.2051 155.406 52.7076 153.884 51.7992 151.377C51.3628 150.173 51.3239 148.475 51.6797 147.349C52.6021 144.52 52.8204 143.865 53.7541 141.042C54.3654 139.224 56.0185 138.009 58.021 137.847C58.021 137.847 55.3375 145.947 54.501 148.594C53.9956 150.245 54.9694 152.499 57.5269 152.499C59.3158 152.52 60.4341 152.508 62.2187 152.499C63.2522 152.486 64.1589 151.857 64.4768 150.901L73.6765 122.534Z" fill="white" fill-opacity="0.1"/>
<path fill-rule="evenodd" clip-rule="evenodd" d="M2.02019 225.552H5.22079L-4.35748 255.163C-4.99922 257.095 -6.83521 258.413 -8.99979 258.442C-10.7938 258.451 -11.7677 258.449 -13.5641 258.442C-17.4512 258.424 -18.9487 256.902 -19.8571 254.395C-20.2935 253.191 -20.3324 251.494 -19.9766 250.368C-19.0542 247.539 -18.8359 246.883 -17.9022 244.06C-17.2909 242.243 -15.6378 241.027 -13.6353 240.865C-13.6353 240.865 -16.3188 248.966 -17.1552 251.612C-17.6606 253.264 -16.6868 255.517 -14.1293 255.517C-12.3404 255.538 -11.2222 255.527 -9.43753 255.517C-8.40398 255.504 -7.49732 254.875 -7.1794 253.919L2.02019 225.552Z" fill="white" fill-opacity="0.1"/>
<path fill-rule="evenodd" clip-rule="evenodd" d="M158.005 46.883H150.965L154.926 34.8372L158.152 34.8581L155.17 43.9511H158.982L158.005 46.883Z" fill="white" fill-opacity="0.1"/>
<path fill-rule="evenodd" clip-rule="evenodd" d="M142.338 62.2246H139.137L148.717 32.614C149.359 30.6822 151.195 29.3639 153.359 29.3353C155.153 29.3258 156.127 29.3277 157.924 29.3353C161.811 29.3525 163.308 30.8746 164.217 33.3817C164.653 34.5857 164.692 36.2831 164.336 37.409C163.414 40.2381 163.195 40.8934 162.261 43.7168C161.65 45.5342 159.997 46.7497 157.994 46.9116C157.994 46.9116 160.678 38.8112 161.515 36.165C162.02 34.5133 161.046 32.2596 158.489 32.2596C156.7 32.2387 155.582 32.2501 153.797 32.2596C152.763 32.2729 151.857 32.9016 151.539 33.858L142.338 62.2246Z" fill="white" fill-opacity="0.1"/>
<path fill-rule="evenodd" clip-rule="evenodd" d="M154.787 53.7428H161.827L157.866 65.7886L154.64 65.7677L157.622 56.6747H153.811L154.787 53.7428Z" fill="white" fill-opacity="0.1"/>
<path fill-rule="evenodd" clip-rule="evenodd" d="M170.453 38.4012H173.654L164.076 68.0118C163.434 69.9436 161.598 71.2619 159.433 71.2904C157.639 71.3 156.666 71.2981 154.869 71.2904C150.982 71.2733 149.485 69.7511 148.576 67.2441C148.14 66.04 148.101 64.3426 148.457 63.2167C149.379 60.3877 149.597 59.7323 150.531 56.909C151.142 55.0916 152.795 53.8761 154.798 53.7142C154.798 53.7142 152.115 61.8146 151.278 64.4608C150.773 66.1125 151.746 68.3662 154.304 68.3662C156.093 68.3871 157.211 68.3757 158.996 68.3662C160.029 68.3528 160.936 67.7241 161.254 66.7678L170.453 38.4012Z" fill="white" fill-opacity="0.1"/>
<path fill-rule="evenodd" clip-rule="evenodd" d="M86.742 150.098H79.7019L83.6633 138.052L86.8896 138.073L83.9071 147.166H87.7189L86.742 150.098Z" fill="white" fill-opacity="0.1"/>
<path fill-rule="evenodd" clip-rule="evenodd" d="M71.0749 165.44H67.8742L77.454 135.829C78.0958 133.897 79.9319 132.579 82.0966 132.55C83.8906 132.541 84.8646 132.543 86.661 132.55C90.5482 132.568 92.0457 134.09 92.954 136.597C93.3904 137.801 93.4292 139.498 93.0733 140.624C92.1508 143.453 91.9325 144.109 90.9986 146.932C90.3872 148.749 88.7341 149.965 86.7315 150.127C86.7315 150.127 89.4154 142.026 90.252 139.38C90.7575 137.728 89.7837 135.475 87.2261 135.475C85.4372 135.454 84.3189 135.465 82.5342 135.475C81.5006 135.488 80.5939 136.117 80.2759 137.073L71.0749 165.44Z" fill="white" fill-opacity="0.1"/>
<path fill-rule="evenodd" clip-rule="evenodd" d="M83.5247 156.958H90.5645L86.6037 169.004L83.3774 168.983L86.3596 159.89H82.5479L83.5247 156.958Z" fill="white" fill-opacity="0.1"/>
<path fill-rule="evenodd" clip-rule="evenodd" d="M99.1907 141.616H102.391L92.813 171.227C92.1713 173.159 90.3353 174.477 88.1707 174.505C86.3767 174.515 85.4028 174.513 83.6064 174.505C79.7193 174.488 78.2218 172.966 77.3134 170.459C76.877 169.255 76.8381 167.558 77.1939 166.432C78.1164 163.603 78.3346 162.947 79.2683 160.124C79.8797 158.307 81.5327 157.091 83.5353 156.929C83.5353 156.929 80.8518 165.03 80.0153 167.676C79.5099 169.328 80.4837 171.581 83.0412 171.581C84.8301 171.602 85.9483 171.591 87.733 171.581C88.7665 171.568 89.6732 170.939 89.9911 169.983L99.1907 141.616Z" fill="white" fill-opacity="0.1"/>
<path fill-rule="evenodd" clip-rule="evenodd" d="M15.184 252.526H8.14401L12.1053 240.48L15.3317 240.501L12.3491 249.594H16.161L15.184 252.526Z" fill="white" fill-opacity="0.1"/>
<path fill-rule="evenodd" clip-rule="evenodd" d="M-0.48299 267.868H-3.68368L5.89605 238.257C6.53789 236.325 8.37398 235.007 10.5386 234.978C12.3327 234.969 13.3066 234.971 15.1031 234.978C18.9903 234.996 20.4877 236.518 21.3961 239.025C21.8325 240.229 21.8713 241.926 21.5154 243.052C20.5929 245.881 20.3746 246.537 19.4407 249.36C18.8293 251.177 17.1762 252.393 15.1735 252.555C15.1735 252.555 17.8574 244.454 18.694 241.808C19.1995 240.156 18.2258 237.903 15.6682 237.903C13.8792 237.882 12.761 237.893 10.9763 237.903C9.94269 237.916 9.03598 238.545 8.71801 239.501L-0.48299 267.868Z" fill="white" fill-opacity="0.1"/>
<path fill-rule="evenodd" clip-rule="evenodd" d="M11.9666 259.386H19.0065L15.0456 271.432L11.8194 271.411L14.8015 262.318H10.9898L11.9666 259.386Z" fill="white" fill-opacity="0.1"/>
<path fill-rule="evenodd" clip-rule="evenodd" d="M27.6328 244.044H30.8334L21.2551 273.655C20.6133 275.587 18.7773 276.905 16.6128 276.934C14.8188 276.943 13.8448 276.941 12.0485 276.934C8.16141 276.916 6.66393 275.394 5.7555 272.887C5.31911 271.683 5.28021 269.986 5.63603 268.86C6.55846 266.031 6.77673 265.376 7.71044 262.552C8.32175 260.735 9.9748 259.519 11.9773 259.357C11.9773 259.357 9.29385 267.458 8.45738 270.104C7.95195 271.756 8.92575 274.009 11.4832 274.009C13.2722 274.03 14.3904 274.019 16.175 274.009C17.2086 273.996 18.1152 273.367 18.4332 272.411L27.6328 244.044Z" fill="white" fill-opacity="0.1"/>
<path fill-rule="evenodd" clip-rule="evenodd" d="M183.617 65.3096H176.577L180.539 53.2638L183.765 53.2847L180.782 62.3777H184.594L183.617 65.3096Z" fill="white" fill-opacity="0.1"/>
<path fill-rule="evenodd" clip-rule="evenodd" d="M167.95 80.6512H164.75L174.329 51.0406C174.971 49.1088 176.807 47.7905 178.972 47.7619C180.766 47.7524 181.74 47.7543 183.536 47.7619C187.424 47.7791 188.921 49.3012 189.829 51.8083C190.266 53.0123 190.305 54.7097 189.949 55.8356C189.026 58.6647 188.808 59.32 187.874 62.1434C187.263 63.9608 185.609 65.1763 183.607 65.3382C183.607 65.3382 186.291 57.2378 187.127 54.5916C187.633 52.9399 186.659 50.6862 184.101 50.6862C182.312 50.6652 181.194 50.6767 179.41 50.6862C178.376 50.6995 177.469 51.3282 177.151 52.2846L167.95 80.6512Z" fill="white" fill-opacity="0.1"/>
<path fill-rule="evenodd" clip-rule="evenodd" d="M180.4 72.1693H187.44L183.479 84.2151L180.253 84.1942L183.235 75.1013H179.423L180.4 72.1693Z" fill="white" fill-opacity="0.1"/>
<path fill-rule="evenodd" clip-rule="evenodd" d="M196.066 56.8278H199.267L189.688 86.4384C189.047 88.3701 187.211 89.6885 185.046 89.717C183.252 89.7266 182.278 89.7247 180.482 89.717C176.595 89.6999 175.097 88.1777 174.189 85.6706C173.752 84.4666 173.713 82.7692 174.069 81.6433C174.992 78.8143 175.21 78.1589 176.144 75.3356C176.755 73.5182 178.408 72.3027 180.411 72.1408C180.411 72.1408 177.727 80.2412 176.891 82.8874C176.385 84.5391 177.359 86.7928 179.917 86.7928C181.705 86.8137 182.824 86.8023 184.608 86.7928C185.642 86.7794 186.549 86.1507 186.866 85.1944L196.066 56.8278Z" fill="white" fill-opacity="0.1"/>
<path fill-rule="evenodd" clip-rule="evenodd" d="M292.761 -28.0913H295.962L286.383 1.51935C285.741 3.4511 283.905 4.76941 281.741 4.79798C279.947 4.80751 278.973 4.8056 277.177 4.79798C273.29 4.78084 271.792 3.25868 270.884 0.751599C270.447 -0.45241 270.408 -2.14981 270.764 -3.27572C271.687 -6.10476 271.905 -6.76012 272.839 -9.58345C273.45 -11.4009 275.103 -12.6163 277.105 -12.7783C277.105 -12.7783 274.422 -4.67785 273.586 -2.03169C273.08 -0.379992 274.054 1.87372 276.611 1.87372C278.4 1.89467 279.519 1.88324 281.303 1.87372C282.337 1.86038 283.243 1.23168 283.561 0.275329L292.761 -28.0913Z" fill="white" fill-opacity="0.1"/>
<path fill-rule="evenodd" clip-rule="evenodd" d="M112.338 168.525H105.298L109.26 156.479L112.486 156.5L109.503 165.593H113.315L112.338 168.525Z" fill="white" fill-opacity="0.1"/>
<path fill-rule="evenodd" clip-rule="evenodd" d="M96.6713 183.866H93.4706L103.05 154.256C103.692 152.324 105.528 151.006 107.693 150.977C109.487 150.967 110.461 150.969 112.257 150.977C116.145 150.994 117.642 152.516 118.55 155.023C118.987 156.227 119.026 157.925 118.67 159.051C117.747 161.88 117.529 162.535 116.595 165.358C115.984 167.176 114.33 168.391 112.328 168.553C112.328 168.553 115.012 160.453 115.848 157.807C116.354 156.155 115.38 153.901 112.822 153.901C111.034 153.88 109.915 153.892 108.131 153.901C107.097 153.915 106.19 154.543 105.872 155.5L96.6713 183.866Z" fill="white" fill-opacity="0.1"/>
<path fill-rule="evenodd" clip-rule="evenodd" d="M109.121 175.384H116.161L112.2 187.43L108.974 187.409L111.956 178.316H108.144L109.121 175.384Z" fill="white" fill-opacity="0.1"/>
<path fill-rule="evenodd" clip-rule="evenodd" d="M124.787 160.043H127.988L118.409 189.653C117.768 191.585 115.932 192.903 113.767 192.932C111.973 192.942 110.999 192.94 109.203 192.932C105.316 192.915 103.818 191.393 102.91 188.886C102.473 187.682 102.435 185.984 102.79 184.858C103.713 182.029 103.931 181.374 104.865 178.551C105.476 176.733 107.129 175.518 109.132 175.356C109.132 175.356 106.448 183.456 105.612 186.102C105.106 187.754 106.08 190.008 108.638 190.008C110.426 190.029 111.545 190.017 113.329 190.008C114.363 189.994 115.27 189.366 115.587 188.409L124.787 160.043Z" fill="white" fill-opacity="0.1"/>
<path fill-rule="evenodd" clip-rule="evenodd" d="M210.575 83.1461H203.535L207.496 71.1002L210.722 71.1212L207.74 80.2141H211.551L210.575 83.1461Z" fill="white" fill-opacity="0.1"/>
<path fill-rule="evenodd" clip-rule="evenodd" d="M194.907 98.4876H191.707L201.287 68.877C201.928 66.9452 203.764 65.6269 205.929 65.5983C207.723 65.5888 208.697 65.5907 210.494 65.5983C214.381 65.6155 215.878 67.1376 216.787 69.6447C217.223 70.8487 217.262 72.5461 216.906 73.672C215.983 76.5011 215.765 77.1564 214.831 79.9798C214.22 81.7972 212.567 83.0126 210.564 83.1746C210.564 83.1746 213.248 75.0742 214.085 72.428C214.59 70.7763 213.616 68.5226 211.059 68.5226C209.27 68.5016 208.151 68.5131 206.367 68.5226C205.333 68.5359 204.426 69.1646 204.109 70.121L194.907 98.4876Z" fill="white" fill-opacity="0.1"/>
<path fill-rule="evenodd" clip-rule="evenodd" d="M207.357 90.0058H214.397L210.436 102.052L207.21 102.031L210.192 92.9377H206.38L207.357 90.0058Z" fill="white" fill-opacity="0.1"/>
<path fill-rule="evenodd" clip-rule="evenodd" d="M223.023 74.6642H226.224L216.646 104.275C216.004 106.207 214.168 107.525 212.003 107.553C210.209 107.563 209.235 107.561 207.439 107.553C203.552 107.536 202.054 106.014 201.146 103.507C200.71 102.303 200.671 100.606 201.026 99.4797C201.949 96.6507 202.167 95.9953 203.101 93.172C203.712 91.3545 205.365 90.1391 207.368 89.9772C207.368 89.9772 204.684 98.0776 203.848 100.724C203.342 102.375 204.316 104.629 206.874 104.629C208.663 104.65 209.781 104.639 211.565 104.629C212.599 104.616 213.506 103.987 213.824 103.031L223.023 74.6642Z" fill="white" fill-opacity="0.1"/>
<path fill-rule="evenodd" clip-rule="evenodd" d="M291.619 13.5679H288.418L297.998 -16.0427C298.64 -17.9744 300.476 -19.2927 302.641 -19.3213C304.435 -19.3308 305.409 -19.3289 307.205 -19.3213C311.092 -19.3042 312.59 -17.782 313.498 -15.2749C313.934 -14.0709 313.973 -12.3735 313.617 -11.2476C312.695 -8.41856 312.476 -7.76319 311.543 -4.93987C310.931 -3.12242 309.278 -1.90698 307.275 -1.74505C307.275 -1.74505 309.959 -9.84547 310.796 -12.4916C311.301 -14.1433 310.328 -16.397 307.77 -16.397C305.981 -16.418 304.863 -16.4066 303.078 -16.397C302.045 -16.3837 301.138 -15.755 300.82 -14.7986L291.619 13.5679Z" fill="white" fill-opacity="0.1"/>
<path fill-rule="evenodd" clip-rule="evenodd" d="M304.068 5.08613H311.108L307.147 17.1319L303.921 17.111L306.903 8.01807H303.092L304.068 5.08613Z" fill="white" fill-opacity="0.1"/>
<path fill-rule="evenodd" clip-rule="evenodd" d="M319.735 -10.2554H322.935L313.357 19.3552C312.715 21.2869 310.879 22.6052 308.715 22.6338C306.921 22.6433 305.947 22.6414 304.15 22.6338C300.263 22.6167 298.766 21.0945 297.857 18.5874C297.421 17.3834 297.382 15.686 297.738 14.5601C298.66 11.7311 298.878 11.0757 299.812 8.25238C300.424 6.43493 302.077 5.21949 304.079 5.05756C304.079 5.05756 301.396 13.158 300.559 15.8041C300.054 17.4558 301.028 19.7095 303.585 19.7095C305.374 19.7305 306.492 19.7191 308.277 19.7095C309.31 19.6962 310.217 19.0675 310.535 18.1111L319.735 -10.2554Z" fill="white" fill-opacity="0.1"/>
<path fill-rule="evenodd" clip-rule="evenodd" d="M67.9506 84.0641H60.9106L64.8719 72.0182L68.0983 72.0392L65.1157 81.1321H68.9275L67.9506 84.0641Z" fill="white" fill-opacity="0.1"/>
<path fill-rule="evenodd" clip-rule="evenodd" d="M52.2836 99.4056H49.0829L58.6626 69.795C59.3045 67.8633 61.1406 66.545 63.3052 66.5164C65.0993 66.5069 66.0732 66.5088 67.8697 66.5164C71.7569 66.5335 73.2543 68.0557 74.1627 70.5628C74.599 71.7668 74.6379 73.4642 74.282 74.5901C73.3594 77.4191 73.1411 78.0745 72.2073 80.8978C71.5959 82.7153 69.9427 83.9307 67.9401 84.0926C67.9401 84.0926 70.624 75.9922 71.4606 73.3461C71.9661 71.6944 70.9924 69.4407 68.4348 69.4407C66.6458 69.4197 65.5276 69.4311 63.7429 69.4407C62.7093 69.454 61.8026 70.0827 61.4846 71.039L52.2836 99.4056Z" fill="white" fill-opacity="0.1"/>
<path fill-rule="evenodd" clip-rule="evenodd" d="M64.7332 90.9238H71.773L67.8122 102.97L64.5859 102.949L67.5681 93.8557H63.7564L64.7332 90.9238Z" fill="white" fill-opacity="0.1"/>
<path fill-rule="evenodd" clip-rule="evenodd" d="M80.3994 75.5822H83.6L74.0217 105.193C73.3799 107.125 71.5439 108.443 69.3794 108.471C67.5854 108.481 66.6114 108.479 64.815 108.471C60.928 108.454 59.4305 106.932 58.5221 104.425C58.0857 103.221 58.0468 101.524 58.4026 100.398C59.325 97.5687 59.5433 96.9134 60.477 94.0901C61.0883 92.2726 62.7414 91.0572 64.7439 90.8952C64.7439 90.8952 62.0604 98.9957 61.224 101.642C60.7185 103.294 61.6923 105.547 64.2498 105.547C66.0388 105.568 67.157 105.557 68.9416 105.547C69.9752 105.534 70.8818 104.905 71.1997 103.949L80.3994 75.5822Z" fill="white" fill-opacity="0.1"/>
<path fill-rule="evenodd" clip-rule="evenodd" d="M148.995 14.4866H145.794L155.374 -15.124C156.016 -17.0558 157.852 -18.3741 160.017 -18.4027C161.811 -18.4122 162.785 -18.4103 164.581 -18.4027C168.468 -18.3855 169.966 -16.8634 170.874 -14.3563C171.31 -13.1523 171.349 -11.4549 170.993 -10.329C170.071 -7.49992 169.853 -6.84456 168.919 -4.02123C168.307 -2.20379 166.654 -0.988342 164.652 -0.826411C164.652 -0.826411 167.335 -8.92683 168.172 -11.573C168.678 -13.2247 167.704 -15.4784 165.146 -15.4784C163.357 -15.4994 162.239 -15.4879 160.454 -15.4784C159.421 -15.4651 158.514 -14.8364 158.196 -13.88L148.995 14.4866Z" fill="white" fill-opacity="0.1"/>
<path fill-rule="evenodd" clip-rule="evenodd" d="M161.445 6.00477H168.484L164.524 18.0506L161.297 18.0296L164.28 8.93671H160.468L161.445 6.00477Z" fill="white" fill-opacity="0.1"/>
<path fill-rule="evenodd" clip-rule="evenodd" d="M177.111 -9.3368H180.311L170.733 20.2738C170.091 22.2056 168.255 23.5239 166.091 23.5524C164.297 23.562 163.323 23.5601 161.526 23.5524C157.639 23.5353 156.142 22.0131 155.234 19.5061C154.797 18.302 154.758 16.6046 155.114 15.4787C156.036 12.6497 156.255 11.9943 157.188 9.17101C157.8 7.35357 159.453 6.13813 161.455 5.97619C161.455 5.97619 158.772 14.0766 157.935 16.7228C157.43 18.3745 158.404 20.6282 160.961 20.6282C162.75 20.6491 163.868 20.6377 165.653 20.6282C166.687 20.6148 167.593 19.9861 167.911 19.0298L177.111 -9.3368Z" fill="white" fill-opacity="0.1"/>
<path fill-rule="evenodd" clip-rule="evenodd" d="M-18.9792 202.621H-22.1799L-12.6002 173.01C-11.9584 171.078 -10.1223 169.76 -7.95761 169.731C-6.16357 169.722 -5.18959 169.724 -3.39315 169.731C0.494034 169.749 1.99151 171.271 2.89987 173.778C3.33623 174.982 3.37508 176.679 3.01921 177.805C2.09665 180.634 1.87835 181.29 0.944507 184.113C0.333105 185.93 -1.32004 187.146 -3.32265 187.308C-3.32265 187.308 -0.638784 179.207 0.197813 176.561C0.703313 174.909 -0.27044 172.656 -2.82802 172.656C-4.617 172.635 -5.73526 172.646 -7.51996 172.656C-8.55355 172.669 -9.46026 173.298 -9.77822 174.254L-18.9792 202.621Z" fill="white" fill-opacity="0.1"/>
<path fill-rule="evenodd" clip-rule="evenodd" d="M9.12024 178.797H12.3208L2.74259 208.408C2.10085 210.34 0.264862 211.658 -1.89972 211.687C-3.6937 211.696 -4.66765 211.694 -6.46403 211.687C-10.3511 211.669 -11.8486 210.147 -12.757 207.64C-13.1934 206.436 -13.2323 204.739 -12.8765 203.613C-11.9541 200.784 -11.7358 200.128 -10.8021 197.305C-10.1908 195.488 -8.53774 194.272 -6.5352 194.11C-6.5352 194.11 -9.21867 202.211 -10.0551 204.857C-10.5606 206.509 -9.58675 208.762 -7.02925 208.762C-5.24033 208.783 -4.1221 208.772 -2.33746 208.762C-1.30391 208.749 -0.397255 208.12 -0.0793346 207.164L9.12024 178.797Z" fill="white" fill-opacity="0.1"/>
<path fill-rule="evenodd" clip-rule="evenodd" d="M93.4812 103.146H86.4412L90.4025 91.1006L93.6289 91.1215L90.6463 100.214H94.4582L93.4812 103.146Z" fill="white" fill-opacity="0.1"/>
<path fill-rule="evenodd" clip-rule="evenodd" d="M77.8142 118.488H74.6135L84.1932 88.8773C84.8351 86.9456 86.6712 85.6273 88.8358 85.5987C90.6298 85.5892 91.6038 85.5911 93.4003 85.5987C97.2874 85.6158 98.7849 87.138 99.6933 89.6451C100.13 90.8491 100.168 92.5465 99.8126 93.6724C98.89 96.5014 98.6717 97.1568 97.7379 99.9801C97.1265 101.798 95.4733 103.013 93.4707 103.175C93.4707 103.175 96.1546 95.0745 96.9912 92.4284C97.4967 90.7767 96.523 88.523 93.9654 88.523C92.1764 88.502 91.0582 88.5134 89.2735 88.523C88.2399 88.5363 87.3332 89.165 87.0152 90.1214L77.8142 118.488Z" fill="white" fill-opacity="0.1"/>
<path fill-rule="evenodd" clip-rule="evenodd" d="M90.2638 110.006H97.3037L93.3428 122.052L90.1165 122.031L93.0987 112.938H89.287L90.2638 110.006Z" fill="white" fill-opacity="0.1"/>
<path fill-rule="evenodd" clip-rule="evenodd" d="M105.93 94.6645H109.131L99.5523 124.275C98.9105 126.207 97.0745 127.525 94.91 127.554C93.116 127.563 92.142 127.561 90.3456 127.554C86.4586 127.537 84.9611 126.014 84.0527 123.507C83.6163 122.303 83.5774 120.606 83.9332 119.48C84.8556 116.651 85.0739 115.996 86.0076 113.172C86.6189 111.355 88.272 110.139 90.2745 109.978C90.2745 109.978 87.591 118.078 86.7546 120.724C86.2491 122.376 87.2229 124.63 89.7804 124.63C91.5694 124.65 92.6876 124.639 94.4722 124.63C95.5058 124.616 96.4124 123.987 96.7304 123.031L105.93 94.6645Z" fill="white" fill-opacity="0.1"/>
<path fill-rule="evenodd" clip-rule="evenodd" d="M190.176 18.1618H183.136L187.097 6.11597L190.324 6.1369L187.341 15.2298H191.153L190.176 18.1618Z" fill="white" fill-opacity="0.1"/>
<path fill-rule="evenodd" clip-rule="evenodd" d="M174.509 33.5033H171.309L180.888 3.89273C181.53 1.96098 183.366 0.642676 185.531 0.6141C187.325 0.604575 188.299 0.60648 190.095 0.6141C193.983 0.631246 195.48 2.1534 196.388 4.66048C196.825 5.86449 196.864 7.5619 196.508 8.6878C195.585 11.5168 195.367 12.1722 194.433 14.9955C193.822 16.813 192.168 18.0284 190.166 18.1903C190.166 18.1903 192.85 10.0899 193.686 7.44378C194.192 5.79207 193.218 3.53837 190.66 3.53837C188.871 3.51741 187.753 3.52884 185.968 3.53837C184.935 3.5517 184.028 4.1804 183.71 5.13675L174.509 33.5033Z" fill="white" fill-opacity="0.1"/>
<path fill-rule="evenodd" clip-rule="evenodd" d="M186.959 25.021H193.999L190.038 37.0668L186.812 37.0458L189.794 27.9529H185.982L186.959 25.021Z" fill="white" fill-opacity="0.1"/>
<path fill-rule="evenodd" clip-rule="evenodd" d="M202.625 9.67939H205.825L196.247 39.29C195.605 41.2218 193.769 42.5401 191.605 42.5686C189.811 42.5782 188.837 42.5763 187.041 42.5686C183.154 42.5515 181.656 41.0293 180.748 38.5223C180.311 37.3182 180.272 35.6208 180.628 34.4949C181.551 31.6659 181.769 31.0105 182.703 28.1872C183.314 26.3698 184.967 25.1543 186.969 24.9924C186.969 24.9924 184.286 33.0928 183.449 35.739C182.944 37.3907 183.918 39.6444 186.475 39.6444C188.264 39.6653 189.383 39.6539 191.167 39.6444C192.201 39.631 193.107 39.0023 193.425 38.046L202.625 9.67939Z" fill="white" fill-opacity="0.1"/>
<path fill-rule="evenodd" clip-rule="evenodd" d="M22.2021 206.361H15.1621L19.1234 194.316L22.3498 194.337L19.3672 203.429H23.179L22.2021 206.361Z" fill="white" fill-opacity="0.1"/>
<path fill-rule="evenodd" clip-rule="evenodd" d="M6.53506 221.703H3.33437L12.9141 192.092C13.556 190.161 15.392 188.842 17.5567 188.814C19.3507 188.804 20.3247 188.806 22.1212 188.814C26.0083 188.831 27.5058 190.353 28.4142 192.86C28.8505 194.064 28.8894 195.762 28.5335 196.887C27.6109 199.716 27.3926 200.372 26.4588 203.195C25.8474 205.013 24.1942 206.228 22.1916 206.39C22.1916 206.39 24.8755 198.29 25.7121 195.643C26.2176 193.992 25.2439 191.738 22.6863 191.738C20.8973 191.717 19.779 191.728 17.9943 191.738C16.9608 191.751 16.054 192.38 15.7361 193.336L6.53506 221.703Z" fill="white" fill-opacity="0.1"/>
<path fill-rule="evenodd" clip-rule="evenodd" d="M18.9847 213.221H26.0245L22.0637 225.267L18.8374 225.246L21.8196 216.153H18.0079L18.9847 213.221Z" fill="white" fill-opacity="0.1"/>
<path fill-rule="evenodd" clip-rule="evenodd" d="M34.6509 197.88H37.8514L28.2731 227.49C27.6314 229.422 25.7954 230.74 23.6308 230.769C21.8368 230.778 20.8629 230.776 19.0665 230.769C15.1795 230.752 13.682 229.23 12.7736 226.722C12.3372 225.518 12.2983 223.821 12.6541 222.695C13.5765 219.866 13.7948 219.211 14.7285 216.387C15.3398 214.57 16.9929 213.355 18.9954 213.193C18.9954 213.193 16.3119 221.293 15.4754 223.939C14.97 225.591 15.9438 227.845 18.5013 227.845C20.2902 227.866 21.4085 227.854 23.1931 227.845C24.2266 227.831 25.1333 227.203 25.4512 226.246L34.6509 197.88Z" fill="white" fill-opacity="0.1"/>
<path fill-rule="evenodd" clip-rule="evenodd" d="M119.077 121.573H112.037L115.999 109.527L119.225 109.548L116.243 118.641H120.054L119.077 121.573Z" fill="white" fill-opacity="0.1"/>
<path fill-rule="evenodd" clip-rule="evenodd" d="M103.41 136.915H100.21L109.789 107.304C110.431 105.372 112.267 104.054 114.432 104.025C116.226 104.016 117.2 104.018 118.997 104.025C122.884 104.042 124.381 105.565 125.29 108.072C125.726 109.276 125.765 110.973 125.409 112.099C124.486 114.928 124.268 115.583 123.334 118.407C122.723 120.224 121.07 121.44 119.067 121.602C119.067 121.602 121.751 113.501 122.587 110.855C123.093 109.203 122.119 106.95 119.562 106.95C117.773 106.929 116.654 106.94 114.87 106.95C113.836 106.963 112.929 107.592 112.611 108.548L103.41 136.915Z" fill="white" fill-opacity="0.1"/>
<path fill-rule="evenodd" clip-rule="evenodd" d="M115.86 128.433H122.9L118.939 140.478L115.713 140.458L118.695 131.365H114.883L115.86 128.433Z" fill="white" fill-opacity="0.1"/>
<path fill-rule="evenodd" clip-rule="evenodd" d="M131.526 113.091H134.727L125.149 142.702C124.507 144.633 122.671 145.952 120.506 145.98C118.712 145.99 117.738 145.988 115.942 145.98C112.055 145.963 110.557 144.441 109.649 141.934C109.213 140.73 109.174 139.033 109.529 137.907C110.452 135.078 110.67 134.422 111.604 131.599C112.215 129.782 113.868 128.566 115.871 128.404C115.871 128.404 113.187 136.505 112.351 139.151C111.845 140.802 112.819 143.056 115.377 143.056C117.166 143.077 118.284 143.066 120.068 143.056C121.102 143.043 122.009 142.414 122.327 141.458L131.526 113.091Z" fill="white" fill-opacity="0.1"/>
<path fill-rule="evenodd" clip-rule="evenodd" d="M215.772 36.6533H208.732L212.694 24.6075L215.92 24.6284L212.938 33.7214H216.749L215.772 36.6533Z" fill="white" fill-opacity="0.1"/>
<path fill-rule="evenodd" clip-rule="evenodd" d="M200.105 51.9949H196.905L206.484 22.3843C207.126 20.4525 208.962 19.1342 211.127 19.1057C212.921 19.0961 213.895 19.098 215.692 19.1057C219.579 19.1228 221.076 20.645 221.985 23.152C222.421 24.356 222.46 26.0535 222.104 27.1794C221.181 30.0084 220.963 30.6638 220.029 33.4871C219.418 35.3045 217.765 36.52 215.762 36.6819C215.762 36.6819 218.446 28.5815 219.282 25.9353C219.788 24.2836 218.814 22.0299 216.257 22.0299C214.468 22.009 213.349 22.0204 211.565 22.0299C210.531 22.0433 209.624 22.672 209.306 23.6283L200.105 51.9949Z" fill="white" fill-opacity="0.1"/>
<path fill-rule="evenodd" clip-rule="evenodd" d="M212.555 43.5131H219.595L215.634 55.5589L212.408 55.538L215.39 46.445H211.578L212.555 43.5131Z" fill="white" fill-opacity="0.1"/>
<path fill-rule="evenodd" clip-rule="evenodd" d="M228.221 28.1715H231.422L221.844 57.7821C221.202 59.7139 219.366 61.0322 217.201 61.0608C215.407 61.0703 214.433 61.0684 212.637 61.0608C208.75 61.0436 207.252 59.5215 206.344 57.0144C205.908 55.8104 205.869 54.113 206.224 52.9871C207.147 50.158 207.365 49.5027 208.299 46.6793C208.91 44.8619 210.563 43.6464 212.566 43.4845C212.566 43.4845 209.882 51.5849 209.046 54.2311C208.54 55.8828 209.514 58.1365 212.072 58.1365C213.861 58.1574 214.979 58.146 216.763 58.1365C217.797 58.1232 218.704 57.4945 219.022 56.5381L228.221 28.1715Z" fill="white" fill-opacity="0.1"/>
<path fill-rule="evenodd" clip-rule="evenodd" d="M47.7983 224.788H40.7583L44.7196 212.742L47.946 212.763L44.9634 221.856H48.7753L47.7983 224.788Z" fill="white" fill-opacity="0.1"/>
<path fill-rule="evenodd" clip-rule="evenodd" d="M32.1313 240.13H28.9306L38.5103 210.519C39.1522 208.587 40.9883 207.269 43.1529 207.24C44.947 207.231 45.9209 207.233 47.7174 207.24C51.6046 207.257 53.102 208.78 54.0104 211.287C54.4467 212.491 54.4856 214.188 54.1297 215.314C53.2071 218.143 52.9888 218.798 52.055 221.622C51.4436 223.439 49.7904 224.655 47.7878 224.817C47.7878 224.817 50.4717 216.716 51.3083 214.07C51.8138 212.418 50.8401 210.165 48.2825 210.165C46.4935 210.144 45.3753 210.155 43.5906 210.165C42.557 210.178 41.6503 210.807 41.3323 211.763L32.1313 240.13Z" fill="white" fill-opacity="0.1"/>
<path fill-rule="evenodd" clip-rule="evenodd" d="M44.5809 231.648H51.6207L47.6599 243.693L44.4336 243.673L47.4158 234.58H43.6041L44.5809 231.648Z" fill="white" fill-opacity="0.1"/>
<path fill-rule="evenodd" clip-rule="evenodd" d="M60.2471 216.306H63.4477L53.8694 245.917C53.2276 247.849 51.3916 249.167 49.2271 249.195C47.4331 249.205 46.4591 249.203 44.6627 249.195C40.7757 249.178 39.2782 247.656 38.3698 245.149C37.9334 243.945 37.8945 242.248 38.2503 241.122C39.1727 238.293 39.391 237.637 40.3247 234.814C40.936 232.997 42.5891 231.781 44.5916 231.619C44.5916 231.619 41.9081 239.72 41.0717 242.366C40.5662 244.017 41.54 246.271 44.0975 246.271C45.8865 246.292 47.0047 246.281 48.7893 246.271C49.8229 246.258 50.7295 245.629 51.0475 244.673L60.2471 216.306Z" fill="white" fill-opacity="0.1"/>
<path fill-rule="evenodd" clip-rule="evenodd" d="M146.035 139.409H138.995L142.956 127.364L146.182 127.384L143.2 136.477H147.012L146.035 139.409Z" fill="white" fill-opacity="0.1"/>
<path fill-rule="evenodd" clip-rule="evenodd" d="M130.368 154.751H127.167L136.747 125.14C137.389 123.209 139.225 121.89 141.389 121.862C143.183 121.852 144.157 121.854 145.954 121.862C149.841 121.879 151.338 123.401 152.247 125.908C152.683 127.112 152.722 128.809 152.366 129.935C151.443 132.764 151.225 133.42 150.291 136.243C149.68 138.061 148.027 139.276 146.024 139.438C146.024 139.438 148.708 131.337 149.545 128.691C150.05 127.04 149.076 124.786 146.519 124.786C144.73 124.765 143.612 124.776 141.827 124.786C140.793 124.799 139.887 125.428 139.569 126.384L130.368 154.751Z" fill="white" fill-opacity="0.1"/>
<path fill-rule="evenodd" clip-rule="evenodd" d="M142.817 146.269H149.857L145.896 158.315L142.67 158.294L145.652 149.201H141.84L142.817 146.269Z" fill="white" fill-opacity="0.1"/>
<path fill-rule="evenodd" clip-rule="evenodd" d="M158.483 130.928H161.684L152.106 160.538C151.464 162.47 149.628 163.788 147.463 163.817C145.669 163.826 144.695 163.824 142.899 163.817C139.012 163.8 137.514 162.277 136.606 159.77C136.17 158.566 136.131 156.869 136.487 155.743C137.409 152.914 137.627 152.259 138.561 149.435C139.172 147.618 140.825 146.402 142.828 146.241C142.828 146.241 140.144 154.341 139.308 156.987C138.802 158.639 139.776 160.892 142.334 160.892C144.123 160.913 145.241 160.902 147.026 160.892C148.059 160.879 148.966 160.25 149.284 159.294L158.483 130.928Z" fill="white" fill-opacity="0.1"/>
<path fill-rule="evenodd" clip-rule="evenodd" d="M242.746 54.4897H235.706L239.667 42.4439L242.894 42.4648L239.911 51.5578H243.723L242.746 54.4897Z" fill="white" fill-opacity="0.1"/>
<path fill-rule="evenodd" clip-rule="evenodd" d="M227.079 69.8313H223.878L233.458 40.2207C234.1 38.2889 235.936 36.9706 238.101 36.942C239.895 36.9325 240.869 36.9344 242.665 36.942C246.552 36.9592 248.05 38.4813 248.958 40.9884C249.394 42.1924 249.433 43.8898 249.077 45.0157C248.155 47.8448 247.937 48.5001 247.003 51.3235C246.391 53.1409 244.738 54.3564 242.736 54.5183C242.736 54.5183 245.419 46.4179 246.256 43.7717C246.762 42.12 245.788 39.8663 243.23 39.8663C241.441 39.8454 240.323 39.8568 238.538 39.8663C237.505 39.8797 236.598 40.5084 236.28 41.4647L227.079 69.8313Z" fill="white" fill-opacity="0.1"/>
<path fill-rule="evenodd" clip-rule="evenodd" d="M239.529 61.3495H246.569L242.608 73.3953L239.381 73.3743L242.364 64.2814H238.552L239.529 61.3495Z" fill="white" fill-opacity="0.1"/>
<path fill-rule="evenodd" clip-rule="evenodd" d="M255.195 46.0079H258.395L248.817 75.6185C248.175 77.5503 246.339 78.8686 244.175 78.8971C242.381 78.9067 241.407 78.9048 239.61 78.8971C235.723 78.88 234.226 77.3578 233.318 74.8508C232.881 73.6467 232.842 71.9493 233.198 70.8234C234.12 67.9944 234.339 67.339 235.272 64.5157C235.884 62.6983 237.537 61.4828 239.539 61.3209C239.539 61.3209 236.856 69.4213 236.019 72.0675C235.514 73.7192 236.488 75.9729 239.045 75.9729C240.834 75.9938 241.952 75.9824 243.737 75.9729C244.771 75.9595 245.677 75.3308 245.995 74.3745L255.195 46.0079Z" fill="white" fill-opacity="0.1"/>
<path fill-rule="evenodd" clip-rule="evenodd" d="M-20.1762 1.89604H-23.3769L-13.7972 -27.7147C-13.1554 -29.6465 -11.3193 -30.9648 -9.15461 -30.9933C-7.36058 -31.0029 -6.3866 -31.001 -4.59015 -30.9933C-0.70297 -30.9762 0.794505 -29.454 1.70287 -26.9469C2.13923 -25.7429 2.17808 -24.0455 1.8222 -22.9196C0.899645 -20.0906 0.681344 -19.4352 -0.252497 -16.6119C-0.863898 -14.7944 -2.51704 -13.579 -4.51966 -13.417C-4.51966 -13.417 -1.83579 -21.5175 -0.999192 -24.1636C-0.493691 -25.8153 -1.46744 -28.0691 -4.02502 -28.0691C-5.81401 -28.09 -6.93227 -28.0786 -8.71697 -28.0691C-9.75055 -28.0557 -10.6573 -27.427 -10.9752 -26.4707L-20.1762 1.89604Z" fill="white" fill-opacity="0.1"/>
<path fill-rule="evenodd" clip-rule="evenodd" d="M7.92323 -21.9276H11.1238L1.54558 7.68311C0.903843 9.61487 -0.932143 10.9332 -3.09672 10.9618C-4.8907 10.9713 -5.86465 10.9694 -7.66104 10.9618C-11.5481 10.9446 -13.0456 9.42245 -13.954 6.91536C-14.3904 5.71134 -14.4293 4.01393 -14.0735 2.88803C-13.1511 0.0589786 -12.9328 -0.59639 -11.9991 -3.41972C-11.3878 -5.23717 -9.73474 -6.45262 -7.7322 -6.61455C-7.7322 -6.61455 -10.4157 1.48589 -11.2521 4.13205C-11.7576 5.78376 -10.7838 8.03748 -8.22626 8.03748C-6.43733 8.05843 -5.31911 8.047 -3.53446 8.03748C-2.50092 8.02414 -1.59426 7.39544 -1.27634 6.43908L7.92323 -21.9276Z" fill="white" fill-opacity="0.1"/>
<path fill-rule="evenodd" clip-rule="evenodd" d="M21.3658 2.9481H14.3258L18.2871 -9.09769L21.5135 -9.07676L18.5309 0.0161637H22.3428L21.3658 2.9481Z" fill="white" fill-opacity="0.1"/>
<path fill-rule="evenodd" clip-rule="evenodd" d="M5.69879 18.2897H2.4981L12.0779 -11.3209C12.7197 -13.2527 14.5558 -14.571 16.7204 -14.5996C18.5145 -14.6091 19.4884 -14.6072 21.2849 -14.5996C25.1721 -14.5824 26.6695 -13.0603 27.5779 -10.5532C28.0143 -9.34917 28.0531 -7.65176 27.6972 -6.52586C26.7747 -3.69682 26.5563 -3.04146 25.6225 -0.21813C25.0111 1.59931 23.358 2.81476 21.3553 2.97669C21.3553 2.97669 24.0392 -5.12373 24.8758 -7.76989C25.3813 -9.42159 24.4076 -11.6753 21.85 -11.6753C20.061 -11.6963 18.9428 -11.6848 17.1581 -11.6753C16.1245 -11.662 15.2178 -11.0333 14.8998 -10.0769L5.69879 18.2897Z" fill="white" fill-opacity="0.1"/>
<path fill-rule="evenodd" clip-rule="evenodd" d="M18.1484 9.80786H25.1883L21.2274 21.8537L18.0012 21.8327L20.9833 12.7398H17.1716L18.1484 9.80786Z" fill="white" fill-opacity="0.1"/>
<path fill-rule="evenodd" clip-rule="evenodd" d="M33.8146 -5.53369H37.0152L27.4369 24.0769C26.7951 26.0086 24.9591 27.3269 22.7946 27.3555C21.0006 27.365 20.0266 27.3631 18.2303 27.3555C14.3432 27.3384 12.8457 25.8162 11.9373 23.3091C11.5009 22.1051 11.462 20.4077 11.8178 19.2818C12.7403 16.4528 12.9585 15.7974 13.8922 12.9741C14.5036 11.1567 16.1566 9.94122 18.1591 9.77929C18.1591 9.77929 15.4757 17.8797 14.6392 20.5259C14.1338 22.1776 15.1076 24.4313 17.6651 24.4313C19.454 24.4522 20.5722 24.4408 22.3568 24.4313C23.3904 24.4179 24.297 23.7892 24.615 22.8329L33.8146 -5.53369Z" fill="white" fill-opacity="0.1"/>
<path fill-rule="evenodd" clip-rule="evenodd" d="M46.8965 22.0304H39.8564L43.8178 9.98459L47.0441 10.0055L44.0616 19.0985H47.8734L46.8965 22.0304Z" fill="white" fill-opacity="0.1"/>
<path fill-rule="evenodd" clip-rule="evenodd" d="M31.2294 37.372H28.0287L37.6085 7.76136C38.2503 5.82961 40.0864 4.5113 42.2511 4.48273C44.0451 4.4732 45.0191 4.47511 46.8155 4.48273C50.7027 4.49987 52.2002 6.02203 53.1085 8.52911C53.5449 9.73312 53.5837 11.4305 53.2278 12.5564C52.3053 15.3855 52.087 16.0408 51.1531 18.8642C50.5417 20.6816 48.8886 21.8971 46.886 22.059C46.886 22.059 49.5698 13.9586 50.4064 11.3124C50.912 9.6607 49.9382 7.407 47.3806 7.407C45.5916 7.38604 44.4734 7.39747 42.6887 7.407C41.6551 7.42033 40.7484 8.04903 40.4304 9.00538L31.2294 37.372Z" fill="white" fill-opacity="0.1"/>
<path fill-rule="evenodd" clip-rule="evenodd" d="M43.679 28.8901H50.7189L46.758 40.9359L43.5318 40.915L46.5139 31.822H42.7022L43.679 28.8901Z" fill="white" fill-opacity="0.1"/>
<path fill-rule="evenodd" clip-rule="evenodd" d="M59.3452 13.5486H62.5458L52.9675 43.1592C52.3257 45.091 50.4897 46.4093 48.3252 46.4378C46.5312 46.4474 45.5572 46.4455 43.7609 46.4378C39.8738 46.4207 38.3763 44.8985 37.4679 42.3915C37.0315 41.1874 36.9926 39.49 37.3484 38.3641C38.2708 35.5351 38.4891 34.8797 39.4228 32.0564C40.0341 30.239 41.6872 29.0235 43.6897 28.8616C43.6897 28.8616 41.0062 36.962 40.1698 39.6082C39.6643 41.2599 40.6381 43.5136 43.1956 43.5136C44.9846 43.5345 46.1028 43.5231 47.8874 43.5136C48.921 43.5002 49.8276 42.8715 50.1456 41.9152L59.3452 13.5486Z" fill="white" fill-opacity="0.1"/>
<path fill-rule="evenodd" clip-rule="evenodd" d="M72.4927 40.457H65.4526L69.414 28.4112L72.6404 28.4321L69.6578 37.5251H73.4696L72.4927 40.457Z" fill="white" fill-opacity="0.1"/>
<path fill-rule="evenodd" clip-rule="evenodd" d="M56.8256 55.7986H53.6249L63.2047 26.188C63.8465 24.2562 65.6826 22.9379 67.8473 22.9093C69.6413 22.8998 70.6153 22.9017 72.4117 22.9093C76.2989 22.9265 77.7964 24.4486 78.7047 26.9557C79.1411 28.1597 79.1799 29.8571 78.8241 30.983C77.9015 33.8121 77.6832 34.4674 76.7493 37.2908C76.1379 39.1082 74.4848 40.3236 72.4822 40.4856C72.4822 40.4856 75.1661 32.3852 76.0027 29.739C76.5082 28.0873 75.5344 25.8336 72.9768 25.8336C71.1879 25.8126 70.0696 25.8241 68.2849 25.8336C67.2513 25.8469 66.3446 26.4756 66.0266 27.432L56.8256 55.7986Z" fill="white" fill-opacity="0.1"/>
<path fill-rule="evenodd" clip-rule="evenodd" d="M69.2753 47.3168H76.3151L72.3543 59.3626L69.128 59.3416L72.1102 50.2487H68.2985L69.2753 47.3168Z" fill="white" fill-opacity="0.1"/>
<path fill-rule="evenodd" clip-rule="evenodd" d="M84.9414 31.9752H88.142L78.5637 61.5858C77.922 63.5175 76.086 64.8358 73.9214 64.8644C72.1274 64.8739 71.1535 64.872 69.3571 64.8644C65.47 64.8473 63.9726 63.3251 63.0641 60.818C62.6277 59.614 62.5888 57.9166 62.9447 56.7907C63.8671 53.9617 64.0854 53.3063 65.0191 50.483C65.6304 48.6655 67.2834 47.4501 69.286 47.2882C69.286 47.2882 66.6025 55.3886 65.766 58.0347C65.2606 59.6864 66.2344 61.9401 68.7919 61.9401C70.5808 61.9611 71.699 61.9497 73.4837 61.9401C74.5172 61.9268 75.4239 61.2981 75.7418 60.3418L84.9414 31.9752Z" fill="white" fill-opacity="0.1"/>
<path fill-rule="evenodd" clip-rule="evenodd" d="M63.6305 8.91246H60.4298L70.0096 -20.6982C70.6514 -22.6299 72.4875 -23.9482 74.6522 -23.9768C76.4462 -23.9863 77.4202 -23.9844 79.2166 -23.9768C83.1038 -23.9596 84.6013 -22.4375 85.5096 -19.9304C85.946 -18.7264 85.9848 -17.029 85.629 -15.9031C84.7064 -13.074 84.4881 -12.4187 83.5542 -9.59535C82.9428 -7.77791 81.2897 -6.56247 79.2871 -6.40053C79.2871 -6.40053 81.971 -14.501 82.8076 -17.1471C83.3131 -18.7988 82.3393 -21.0525 79.7818 -21.0525C77.9928 -21.0735 76.8745 -21.062 75.0898 -21.0525C74.0562 -21.0392 73.1495 -20.4105 72.8315 -19.4541L63.6305 8.91246Z" fill="white" fill-opacity="0.1"/>
<path fill-rule="evenodd" clip-rule="evenodd" d="M76.08 0.430641H83.1198L79.159 12.4764L75.9327 12.4555L78.9149 3.36258H75.1032L76.08 0.430641Z" fill="white" fill-opacity="0.1"/>
<path fill-rule="evenodd" clip-rule="evenodd" d="M91.7462 -14.9109H94.9468L85.3685 14.6997C84.7267 16.6314 82.8907 17.9497 80.7262 17.9783C78.9322 17.9878 77.9582 17.9859 76.1619 17.9783C72.2748 17.9612 70.7773 16.439 69.8689 13.9319C69.4325 12.7279 69.3936 11.0305 69.7494 9.90461C70.6719 7.07557 70.8901 6.42021 71.8238 3.59688C72.4351 1.77944 74.0882 0.563995 76.0907 0.402063C76.0907 0.402063 73.4072 8.50248 72.5708 11.1486C72.0653 12.8003 73.0391 15.054 75.5966 15.054C77.3856 15.075 78.5038 15.0636 80.2884 15.054C81.322 15.0407 82.2286 14.412 82.5466 13.4557L91.7462 -14.9109Z" fill="white" fill-opacity="0.1"/>
<path fill-rule="evenodd" clip-rule="evenodd" d="M7.73964 95.999H0.699607L4.66095 83.9532L7.88733 83.9742L4.90475 93.0671H8.71657L7.73964 95.999Z" fill="white" fill-opacity="0.1"/>
<path fill-rule="evenodd" clip-rule="evenodd" d="M-7.9274 111.341H-11.1281L-1.54834 81.73C-0.906503 79.7983 0.929595 78.4799 3.09424 78.4514C4.88828 78.4418 5.86226 78.4438 7.6587 78.4514C11.5459 78.4685 13.0434 79.9907 13.9517 82.4978C14.3881 83.7018 14.4269 85.3992 14.071 86.5251C13.1485 89.3541 12.9302 90.0095 11.9963 92.8328C11.3849 94.6503 9.73176 95.8657 7.72915 96.0276C7.72915 96.0276 10.413 87.9272 11.2496 85.2811C11.7551 83.6293 10.7814 81.3756 8.22382 81.3756C6.43484 81.3547 5.31658 81.3661 3.53188 81.3756C2.4983 81.389 1.59159 82.0177 1.27362 82.974L-7.9274 111.341Z" fill="white" fill-opacity="0.1"/>
<path fill-rule="evenodd" clip-rule="evenodd" d="M4.52225 102.859H11.5621L7.60123 114.905L4.37495 114.884L7.35715 105.791H3.54544L4.52225 102.859Z" fill="white" fill-opacity="0.1"/>
<path fill-rule="evenodd" clip-rule="evenodd" d="M20.1884 87.5172H23.389L13.8107 117.128C13.1689 119.06 11.3329 120.378 9.16835 120.406C7.37438 120.416 6.40043 120.414 4.60404 120.406C0.716985 120.389 -0.780495 118.867 -1.68892 116.36C-2.12531 115.156 -2.16422 113.459 -1.80839 112.333C-0.885964 109.504 -0.667693 108.848 0.266017 106.025C0.877334 104.208 2.53038 102.992 4.53292 102.83C4.53292 102.83 1.84943 110.931 1.01296 113.577C0.50753 115.228 1.48133 117.482 4.03883 117.482C5.82775 117.503 6.94598 117.492 8.73062 117.482C9.76417 117.469 10.6708 116.84 10.9887 115.884L20.1884 87.5172Z" fill="white" fill-opacity="0.1"/>
<path fill-rule="evenodd" clip-rule="evenodd" d="M104.894 12.063H97.8536L101.815 0.0172044L105.041 0.0381342L102.059 9.13105H105.871L104.894 12.063Z" fill="white" fill-opacity="0.1"/>
<path fill-rule="evenodd" clip-rule="evenodd" d="M89.2268 27.4046H86.0261L95.6058 -2.20603C96.2476 -4.13778 98.0837 -5.45609 100.248 -5.48467C102.042 -5.49419 103.016 -5.49229 104.813 -5.48467C108.7 -5.46752 110.197 -3.94537 111.106 -1.43828C111.542 -0.234273 111.581 1.46313 111.225 2.58903C110.303 5.41807 110.084 6.07344 109.15 8.89677C108.539 10.7142 106.886 11.9297 104.883 12.0916C104.883 12.0916 107.567 3.99116 108.404 1.34501C108.909 -0.306692 107.936 -2.5604 105.378 -2.5604C103.589 -2.58136 102.471 -2.56992 100.686 -2.5604C99.6524 -2.54706 98.7457 -1.91836 98.4278 -0.962013L89.2268 27.4046Z" fill="white" fill-opacity="0.1"/>
<path fill-rule="evenodd" clip-rule="evenodd" d="M101.676 18.9228H108.716L104.755 30.9686L101.529 30.9476L104.511 21.8547H100.699L101.676 18.9228Z" fill="white" fill-opacity="0.1"/>
<path fill-rule="evenodd" clip-rule="evenodd" d="M117.342 3.58119H120.543L110.965 33.1918C110.323 35.1236 108.487 36.4419 106.322 36.4704C104.528 36.48 103.554 36.4781 101.758 36.4704C97.871 36.4533 96.3735 34.9311 95.4651 32.4241C95.0287 31.22 94.9898 29.5226 95.3456 28.3967C96.2681 25.5677 96.4863 24.9123 97.42 22.089C98.0314 20.2716 99.6844 19.0561 101.687 18.8942C101.687 18.8942 99.0034 26.9946 98.167 29.6408C97.6616 31.2925 98.6354 33.5462 101.193 33.5462C102.982 33.5671 104.1 33.5557 105.885 33.5462C106.918 33.5328 107.825 32.9041 108.143 31.9478L117.342 3.58119Z" fill="white" fill-opacity="0.1"/>
<path fill-rule="evenodd" clip-rule="evenodd" d="M1.67584 22.3355H4.87644L-4.70182 51.9462C-5.34356 53.878 -7.17955 55.1963 -9.34413 55.2249C-11.1381 55.2344 -12.1121 55.2325 -13.9085 55.2249C-17.7955 55.2077 -19.293 53.6856 -20.2014 51.1785C-20.6378 49.9745 -20.6767 48.2771 -20.3209 47.1512C-19.3985 44.3221 -19.1802 43.6667 -18.2465 40.8434C-17.6352 39.0259 -15.9822 37.8105 -13.9796 37.6486C-13.9796 37.6486 -16.6631 45.749 -17.4996 48.3952C-18.005 50.0469 -17.0312 52.3006 -14.4737 52.3006C-12.6847 52.3216 -11.5665 52.3101 -9.78187 52.3006C-8.74832 52.2873 -7.84166 51.6586 -7.52374 50.7022L1.67584 22.3355Z" fill="white" fill-opacity="0.1"/>
<path fill-rule="evenodd" clip-rule="evenodd" d="M14.7577 49.8342H7.71766L11.679 37.7884L14.9054 37.8094L11.9228 46.9023H15.7346L14.7577 49.8342Z" fill="white" fill-opacity="0.1"/>
<path fill-rule="evenodd" clip-rule="evenodd" d="M-0.90934 65.1758H-4.11003L5.46972 35.5652C6.11155 33.6334 7.94765 32.3151 10.1123 32.2865C11.9063 32.277 12.8803 32.2789 14.6768 32.2865C18.5639 32.3037 20.0614 33.8258 20.9698 36.3329C21.4061 37.5369 21.445 39.2343 21.0891 40.3603C20.1665 43.1893 19.9482 43.8447 19.0144 46.668C18.403 48.4854 16.7498 49.7009 14.7472 49.8628C14.7472 49.8628 17.4311 41.7624 18.2677 39.1162C18.7732 37.4645 17.7995 35.2108 15.2419 35.2108C13.4529 35.1899 12.3346 35.2013 10.5499 35.2108C9.51635 35.2242 8.60964 35.8529 8.29167 36.8092L-0.90934 65.1758Z" fill="white" fill-opacity="0.1"/>
<path fill-rule="evenodd" clip-rule="evenodd" d="M11.5403 56.694H18.5801L14.6193 68.7398L11.393 68.7189L14.3752 59.6259H10.5635L11.5403 56.694Z" fill="white" fill-opacity="0.1"/>
<path fill-rule="evenodd" clip-rule="evenodd" d="M27.2065 41.3524H30.407L20.8287 70.963C20.187 72.8948 18.351 74.2131 16.1864 74.2417C14.3925 74.2512 13.4185 74.2493 11.6221 74.2417C7.73507 74.2245 6.23759 72.7023 5.32917 70.1953C4.89278 68.9913 4.85387 67.2939 5.2097 66.168C6.13212 63.3389 6.35039 62.6835 7.2841 59.8602C7.89542 58.0428 9.54846 56.8273 11.551 56.6654C11.551 56.6654 8.86752 64.7658 8.03104 67.412C7.52562 69.0637 8.49942 71.3174 11.0569 71.3174C12.8458 71.3383 13.9641 71.3269 15.7487 71.3174C16.7822 71.304 17.6889 70.6753 18.0068 69.719L27.2065 41.3524Z" fill="white" fill-opacity="0.1"/>
<path fill-rule="evenodd" clip-rule="evenodd" d="M40.3539 68.3263H33.3139L37.2752 56.2806L40.5016 56.3015L37.519 65.3944H41.3309L40.3539 68.3263Z" fill="white" fill-opacity="0.1"/>
<path fill-rule="evenodd" clip-rule="evenodd" d="M24.6869 83.6679H21.4862L31.0659 54.0573C31.7078 52.1256 33.5439 50.8073 35.7085 50.7787C37.5026 50.7692 38.4765 50.7711 40.273 50.7787C44.1602 50.7958 45.6576 52.318 46.566 54.8251C47.0023 56.0291 47.0412 57.7265 46.6853 58.8524C45.7627 61.6814 45.5444 62.3368 44.6106 65.1601C43.9992 66.9776 42.346 68.193 40.3434 68.3549C40.3434 68.3549 43.0273 60.2545 43.8639 57.6084C44.3694 55.9567 43.3957 53.7029 40.8381 53.7029C39.0491 53.682 37.9309 53.6934 36.1462 53.7029C35.1126 53.7163 34.2059 54.345 33.8879 55.3013L24.6869 83.6679Z" fill="white" fill-opacity="0.1"/>
<path fill-rule="evenodd" clip-rule="evenodd" d="M37.1365 75.1861H44.1763L40.2155 87.2319L36.9892 87.211L39.9714 78.118H36.1597L37.1365 75.1861Z" fill="white" fill-opacity="0.1"/>
<path fill-rule="evenodd" clip-rule="evenodd" d="M52.8027 59.8445H56.0033L46.4249 89.4551C45.7832 91.3869 43.9472 92.7052 41.7826 92.7338C39.9887 92.7433 39.0147 92.7414 37.2183 92.7338C33.3313 92.7166 31.8338 91.1945 30.9254 88.6874C30.489 87.4834 30.4501 85.786 30.8059 84.6601C31.7283 81.831 31.9466 81.1756 32.8803 78.3523C33.4916 76.5349 35.1447 75.3194 37.1472 75.1575C37.1472 75.1575 34.4637 83.2579 33.6272 85.9041C33.1218 87.5558 34.0956 89.8095 36.6531 89.8095C38.442 89.8304 39.5603 89.819 41.3449 89.8095C42.3785 89.7962 43.2851 89.1675 43.603 88.2111L52.8027 59.8445Z" fill="white" fill-opacity="0.1"/>
<path fill-rule="evenodd" clip-rule="evenodd" d="M135.373 -10.1925H142.413L138.452 1.85326L135.226 1.83233L138.208 -7.2606H134.396L135.373 -10.1925Z" fill="white" fill-opacity="0.1"/>
<path fill-rule="evenodd" clip-rule="evenodd" d="M151.039 -25.5341H154.24L144.661 4.07649C144.02 6.00824 142.184 7.32655 140.019 7.35513C138.225 7.36465 137.251 7.36275 135.455 7.35513C131.568 7.33798 130.07 5.81582 129.162 3.30874C128.725 2.10473 128.686 0.40733 129.042 -0.718571C129.965 -3.54761 130.183 -4.20298 131.117 -7.0263C131.728 -8.84375 133.381 -10.0592 135.384 -10.2211C135.384 -10.2211 132.7 -2.1207 131.864 0.52545C131.358 2.17715 132.332 4.43086 134.889 4.43086C136.678 4.45182 137.797 4.44038 139.581 4.43086C140.615 4.41752 141.521 3.78882 141.839 2.83247L151.039 -25.5341Z" fill="white" fill-opacity="0.1"/>
</g>
<defs>
<clipPath id="clip0_35215_2332">
<rect width="200.393" height="338.996" fill="white" transform="translate(-28 -43) scale(2.4452 1.02361)"/>
</clipPath>
</defs>
</svg>
